<svg width="107" height="210" viewBox="0 0 107 210" fill="none" xmlns="http://www.w3.org/2000/svg">
<path d="M89.4585 62.6909H86.6465C82.8655 62.6909 79.7725 59.5979 79.7725 55.8169V37.3989C79.7725 33.6179 82.8655 30.5239 86.6465 30.5239H89.4585C93.2395 30.5239 96.3335 33.6179 96.3335 37.3989V55.8169C96.3335 59.5979 93.2395 62.6909 89.4585 62.6909Z" fill="black"/>
<path d="M20.9956 62.6909H18.1836C14.4026 62.6909 11.3096 59.5979 11.3096 55.8169V37.3989C11.3096 33.6179 14.4026 30.5239 18.1836 30.5239H20.9956C24.7766 30.5239 27.8696 33.6179 27.8696 37.3989V55.8169C27.8696 59.5979 24.7756 62.6909 20.9956 62.6909Z" fill="black"/>
<path d="M89.4585 183.837H86.6465C82.8655 183.837 79.7725 180.743 79.7725 176.963V158.545C79.7725 154.764 82.8655 151.671 86.6465 151.671H89.4585C93.2395 151.671 96.3335 154.765 96.3335 158.545V176.963C96.3335 180.744 93.2395 183.837 89.4585 183.837Z" fill="black"/>
<path d="M19.9595 183.837H17.1475C13.3665 183.837 10.2725 180.743 10.2725 176.963V158.545C10.2725 154.764 13.3655 151.671 17.1475 151.671H19.9595C23.7405 151.671 26.8335 154.765 26.8335 158.545V176.963C26.8335 180.744 23.7405 183.837 19.9595 183.837Z" fill="black"/>
<path d="M14.6224 36.381V56.4959C14.6224 56.4959 11.9414 84.454 11.9414 91.348C11.9414 98.242 11.9414 151.476 11.9414 151.476C11.9414 151.476 12.2284 167.274 12.5634 170.577C12.8984 173.88 14.4304 186.71 17.5904 192.838C20.7504 198.966 25.8244 205.764 31.8564 207.296C37.8884 208.828 41.5744 209.45 51.4844 209.45C61.3944 209.45 67.4264 209.45 67.4264 209.45C67.4264 209.45 76.1874 209.163 82.2194 203.131C88.2514 197.099 91.5544 191.929 93.1344 181.445C94.7144 170.961 94.8574 118.109 94.8574 118.109V91.6829C94.8574 91.6829 93.4214 58.3639 93.4214 55.7779V35.655C93.4214 28.319 90.9394 21.1979 86.3784 15.452L83.0484 11.257C78.0784 4.99595 70.5224 1.34595 62.5284 1.34595H46.4134C38.7824 1.34595 31.5314 4.67295 26.5544 10.4569L22.4854 15.186C17.4124 21.082 14.6224 28.602 14.6224 36.381Z" fill="#E30613"/>
<path d="M87.4194 64.9419L84.3074 79.4119C83.5184 83.0829 83.0904 86.8219 83.0314 90.5769L81.7114 183.167C81.6934 184.28 82.1784 185.341 83.0304 186.057C85.3944 188.043 89.0074 186.428 89.1044 183.342L90.8624 118.925C90.8704 118.668 90.8704 118.411 90.8614 118.154L89.0924 65.0929C89.0604 64.0939 87.6294 63.9649 87.4194 64.9419Z" fill="black"/>
<path d="M19.3903 64.9419L22.5023 79.4119C23.2923 83.0829 23.7193 86.8219 23.7783 90.5769L25.0983 183.167C25.1153 184.28 24.6313 185.341 23.7793 186.057C21.4153 188.043 17.8023 186.428 17.7053 183.342L15.9473 118.925C15.9393 118.668 15.9393 118.411 15.9483 118.154L17.7173 65.0929C17.7493 64.0939 19.1803 63.9649 19.3903 64.9419Z" fill="black"/>
<path d="M31.8561 179.242C30.9041 179.242 30.1331 178.471 30.1331 177.519V109.043C30.1331 103.78 29.5541 98.5059 28.4121 93.3679L26.7271 85.7849C26.5201 84.8559 27.1061 83.9349 28.0361 83.7289C28.9621 83.5239 29.8861 84.1089 30.0921 85.0379L31.7771 92.6209C32.9731 98.0039 33.5791 103.53 33.5791 109.043V177.519C33.5801 178.47 32.8081 179.242 31.8561 179.242Z" fill="#EDEDED"/>
<path d="M74.9427 179.242C73.9907 179.242 73.2197 178.471 73.2197 177.519V109.043C73.2197 103.529 73.8257 98.0039 75.0227 92.6209L76.7077 85.0379C76.9147 84.1089 77.8377 83.5239 78.7637 83.7289C79.6937 83.9349 80.2787 84.8559 80.0727 85.7849L78.3877 93.3679C77.2457 98.5059 76.6667 103.78 76.6667 109.043V177.519C76.6657 178.47 75.8947 179.242 74.9427 179.242Z" fill="#EDEDED"/>
<path d="M28.9918 192.044L31.9818 192.749C45.1998 195.865 58.9468 195.986 72.2178 193.105L77.7738 191.899C79.7738 191.465 81.8158 192.431 82.7478 194.253C84.3198 197.325 83.7488 201.058 81.3318 203.52C77.4288 207.497 72.0908 209.737 66.5188 209.737H40.4468C35.8118 209.737 31.3098 208.185 27.6588 205.329L26.3068 204.271C23.4188 202.012 22.3878 198.105 23.7858 194.715C24.6298 192.667 26.8358 191.535 28.9918 192.044Z" fill="black"/>
<path d="M93.4473 66.5481V69.8641C93.4473 71.3351 94.4353 72.6231 95.8563 73.0031L105.709 75.6421C106.38 75.8221 107.03 75.2531 106.914 74.5671C106.491 72.0601 104.389 66.9961 94.4333 65.6921C93.9133 65.6231 93.4473 66.0231 93.4473 66.5481Z" fill="#E30613"/>
<path d="M13.4805 66.5481V69.8641C13.4805 71.3351 12.4925 72.6231 11.0715 73.0031L1.21852 75.6421C0.547518 75.8221 -0.102482 75.2531 0.0135176 74.5671C0.436518 72.0601 2.53852 66.9961 12.4945 65.6921C13.0145 65.6231 13.4805 66.0231 13.4805 66.5481Z" fill="#E30613"/>
<path d="M41.3388 183.837H41.1558C39.8368 183.837 38.7578 182.758 38.7578 181.439V87.8079C38.7578 86.4889 39.8368 85.4099 41.1558 85.4099H41.3388C42.6578 85.4099 43.7368 86.4889 43.7368 87.8079V181.439C43.7368 182.758 42.6578 183.837 41.3388 183.837Z" fill="#CE0D0D"/>
<path d="M52.2539 183.837H52.0709C50.7519 183.837 49.6729 182.758 49.6729 181.439V87.8079C49.6729 86.4889 50.7519 85.4099 52.0709 85.4099H52.2539C53.5729 85.4099 54.6519 86.4889 54.6519 87.8079V181.439C54.6519 182.758 53.5729 183.837 52.2539 183.837Z" fill="#CE0D0D"/>
<path d="M63.1689 183.837H62.9859C61.6669 183.837 60.5879 182.758 60.5879 181.439V87.8079C60.5879 86.4889 61.6669 85.4099 62.9859 85.4099H63.1689C64.4879 85.4099 65.5669 86.4889 65.5669 87.8079V181.439C65.5669 182.758 64.4879 183.837 63.1689 183.837Z" fill="#CE0D0D"/>
<path d="M81.8835 31.838C69.7335 18.794 68.3415 1.99896 68.3415 1.99896C58.8535 -0.768035 48.7585 -0.660029 39.3315 2.30797L38.7575 2.48897C38.7575 2.48897 37.1245 18.84 24.9625 31.815C22.8675 34.05 21.6085 36.94 21.4445 39.999L20.5195 57.261H54.6515H86.2935L85.3675 39.985C85.2045 36.944 83.9595 34.067 81.8835 31.838Z" fill="#CE0D0D"/>
<path d="M73.2588 3.64404C73.2588 3.64404 75.6018 13.337 88.8958 19.118C88.8958 19.118 82.6168 6.36304 73.2588 3.64404Z" fill="#F9B233"/>
<path d="M36.2289 3.64404C36.2289 3.64404 32.8829 13.337 19.5889 19.118C19.5889 19.118 26.8709 6.36304 36.2289 3.64404Z" fill="#F9B233"/>
<path d="M20.6716 59.4859L24.7686 78.2549C25.2136 80.2929 27.1476 81.6479 29.2136 81.3619C37.5656 80.2049 58.8246 77.9029 77.7786 81.1759C79.9056 81.5429 81.9376 80.1509 82.3666 78.0359L86.1466 59.4189C86.8156 56.1229 84.8926 52.8529 81.6866 51.8359L76.4906 50.1879C61.4376 45.4139 45.2766 45.4139 30.2246 50.1879L25.1116 51.8089C21.8716 52.8369 19.9476 56.1639 20.6716 59.4859Z" fill="black"/>
<g opacity="0.2">
<path d="M31.1572 49.9001L52.1612 79.5321L57.2352 79.4961L34.6292 48.9351L31.1572 49.9001Z" fill="white"/>
</g>
<g opacity="0.2">
<path d="M39.7412 194.226L51.1372 209.737L56.2102 209.7L45.2172 194.856L39.7412 194.226Z" fill="white"/>
</g>
<g opacity="0.2">
<path d="M50.3467 195.143L61.0687 209.737L66.1417 209.7L55.3627 195.145L50.3467 195.143Z" fill="white"/>
</g>
<g opacity="0.2">
<path d="M38.7578 48.013L61.3728 79.532L66.6278 79.853L42.4968 47.385L38.7578 48.013Z" fill="white"/>
</g>
<path d="M90.8109 124.31L81.7119 120.864V116.545L90.8109 119.991V124.31Z" fill="#E30613"/>
<path d="M14.9365 124.31L25.0985 120.864V116.545L14.9365 119.991V124.31Z" fill="#E30613"/>
<path d="M90.8109 175.519L81.7119 172.073V167.754L90.8109 171.201V175.519Z" fill="#E30613"/>
<path d="M14.9365 175.519L25.0985 172.073V167.754L14.9365 171.201V175.519Z" fill="#E30613"/>
</svg>
