<svg width="19" height="20" viewBox="0 0 19 20" fill="none" xmlns="http://www.w3.org/2000/svg">
<path d="M2.17718 15.5418C1.8526 15.5418 1.58343 15.2585 1.58343 14.9168V10.1668C1.54385 7.9085 2.34343 5.77516 3.83177 4.17516C5.3201 2.5835 7.3151 1.7085 9.46052 1.7085C13.8463 1.7085 17.4168 5.46683 17.4168 10.0835V14.8335C17.4168 15.1752 17.1476 15.4585 16.823 15.4585C16.4984 15.4585 16.2293 15.1752 16.2293 14.8335V10.0835C16.2293 6.1585 13.1972 2.9585 9.46052 2.9585C7.63177 2.9585 5.9376 3.70016 4.67885 5.05016C3.41218 6.4085 2.73927 8.21683 2.77093 10.1502V14.9085C2.77093 15.2585 2.50968 15.5418 2.17718 15.5418Z" fill="#364B63"/>
<path d="M4.70242 10.375H4.5995C2.937 10.375 1.58325 11.8 1.58325 13.55V15.1167C1.58325 16.8667 2.937 18.2917 4.5995 18.2917H4.70242C6.36492 18.2917 7.71867 16.8667 7.71867 15.1167V13.55C7.71867 11.8 6.36492 10.375 4.70242 10.375Z" fill="#364B63"/>
<path d="M14.4004 10.375H14.2975C12.635 10.375 11.2812 11.8 11.2812 13.55V15.1167C11.2812 16.8667 12.635 18.2917 14.2975 18.2917H14.4004C16.0629 18.2917 17.4167 16.8667 17.4167 15.1167V13.55C17.4167 11.8 16.0629 10.375 14.4004 10.375Z" fill="#364B63"/>
</svg>
