<svg width="14" height="14" viewBox="0 0 14 14" fill="none" xmlns="http://www.w3.org/2000/svg">
<path d="M9.36549 13.7147C8.42657 13.5785 7.53403 13.2191 6.76283 12.6665C5.86901 12.0441 5.04796 11.3232 4.31513 10.5175C3.39101 9.57508 2.51932 8.58268 1.70401 7.54473C1.05059 6.71413 0.546534 5.77625 0.214358 4.773C0.00216796 4.12039 -0.0534993 3.42701 0.0518634 2.74891C0.200298 1.96623 0.60631 1.2557 1.20526 0.730453C1.44716 0.51408 1.70987 0.322164 1.98954 0.157509C2.15609 0.05167 2.35 -0.00304115 2.54731 0.000130479C2.74462 0.0033021 2.93668 0.0642148 3.09975 0.175352C3.88111 0.640325 4.47998 1.35852 4.79697 2.21072C4.85128 2.33076 4.87244 2.46316 4.85824 2.59415C4.84403 2.72514 4.79498 2.84994 4.71619 2.95554C4.51989 3.22041 4.31513 3.47871 4.11695 3.74451C3.94225 3.97933 3.76097 4.21414 3.60599 4.45741C3.52617 4.57008 3.48386 4.70502 3.48504 4.84309C3.48622 4.98117 3.53084 5.11537 3.61257 5.22666C4.00424 5.77612 4.3837 6.34248 4.80918 6.86565C5.57985 7.81963 6.43318 8.70377 7.35925 9.50777C7.56588 9.68529 7.78661 9.84213 8.0064 10.0027C8.10014 10.0756 8.2128 10.1199 8.33102 10.1306C8.44923 10.1412 8.56801 10.1177 8.67326 10.0629C8.90901 9.9466 9.13851 9.81806 9.3608 9.67777C9.66888 9.48147 9.97131 9.27953 10.2728 9.08511C10.3973 9.00533 10.5415 8.96153 10.6893 8.95854C10.8372 8.95556 10.983 8.99351 11.1106 9.0682C11.8899 9.45457 12.5254 10.0798 12.9243 10.8528C13.0364 11.046 13.087 11.2687 13.0693 11.4913C13.0517 11.714 12.9667 11.926 12.8257 12.0992C12.4879 12.5928 12.0376 12.999 11.5119 13.2843C10.9862 13.5696 10.4002 13.7258 9.80224 13.74C9.65563 13.7378 9.50923 13.7281 9.36361 13.7109L9.36549 13.7147Z" fill="white"/>
</svg>
