<svg width="14" height="14" viewBox="0 0 14 14" fill="none" xmlns="http://www.w3.org/2000/svg">
<g opacity="0.5">
<path d="M9.33335 7.52484V9.97484C9.33335 12.0165 8.51669 12.8332 6.47502 12.8332H4.02502C1.98335 12.8332 1.16669 12.0165 1.16669 9.97484V7.52484C1.16669 5.48317 1.98335 4.6665 4.02502 4.6665H6.47502C8.51669 4.6665 9.33335 5.48317 9.33335 7.52484Z" fill="#292D32"/>
<path d="M9.97499 1.1665H7.52499C5.89736 1.1665 5.05191 1.68923 4.77573 2.93218C4.65493 3.47584 5.12748 3.93734 5.68439 3.93734H6.47499C8.92499 3.93734 10.0625 5.07484 10.0625 7.52484V8.31543C10.0625 8.87235 10.524 9.34489 11.0676 9.22409C12.3106 8.94791 12.8333 8.10247 12.8333 6.47484V4.02484C12.8333 1.98317 12.0167 1.1665 9.97499 1.1665Z" fill="#292D32"/>
</g>
</svg>
