<svg width="21" height="21" viewBox="0 0 21 21" fill="none" xmlns="http://www.w3.org/2000/svg">
<path d="M17.9375 8.91625H15.4088C13.335 8.91625 11.6463 7.2275 11.6463 5.15375V2.625C11.6463 2.14375 11.2525 1.75 10.7713 1.75H7.06125C4.36625 1.75 2.1875 3.5 2.1875 6.62375V14.3763C2.1875 17.5 4.36625 19.25 7.06125 19.25H13.9388C16.6337 19.25 18.8125 17.5 18.8125 14.3763V9.79125C18.8125 9.31 18.4188 8.91625 17.9375 8.91625ZM10.745 13.8075L8.995 15.5575C8.93375 15.6188 8.855 15.6713 8.77625 15.6975C8.6975 15.7325 8.61875 15.75 8.53125 15.75C8.44375 15.75 8.365 15.7325 8.28625 15.6975C8.21625 15.6713 8.14625 15.6188 8.09375 15.5663C8.085 15.5575 8.07625 15.5575 8.07625 15.5487L6.32625 13.7987C6.0725 13.545 6.0725 13.125 6.32625 12.8713C6.58 12.6175 7 12.6175 7.25375 12.8713L7.875 13.51V9.84375C7.875 9.485 8.1725 9.1875 8.53125 9.1875C8.89 9.1875 9.1875 9.485 9.1875 9.84375V13.51L9.8175 12.88C10.0713 12.6263 10.4913 12.6263 10.745 12.88C10.9987 13.1337 10.9987 13.5538 10.745 13.8075Z" fill="#364B63"/>
<path d="M15.2515 7.70868C16.0827 7.71743 17.2377 7.71743 18.2265 7.71743C18.7252 7.71743 18.9877 7.13118 18.6377 6.78118C17.3777 5.51243 15.1202 3.22868 13.8252 1.93368C13.4665 1.57493 12.8452 1.81993 12.8452 2.31868V5.37243C12.8452 6.64993 13.9302 7.70868 15.2515 7.70868Z" fill="#364B63"/>
</svg>
