<svg width="17" height="16" viewBox="0 0 17 16" fill="none" xmlns="http://www.w3.org/2000/svg">
<path fill-rule="evenodd" clip-rule="evenodd" d="M11.0536 1.66321C9.76974 -0.554409 6.568 -0.554399 5.28412 1.66321L0.453565 10.0069C-0.832985 12.2291 0.77055 15.0103 3.33832 15.0103H12.9994C15.5672 15.0103 17.1707 12.2291 15.8842 10.0069L11.0536 1.66321ZM7.33551 10.427C7.33551 10.1969 7.52206 10.0103 7.75218 10.0103H8.58551C8.81563 10.0103 9.00218 10.1969 9.00218 10.427V11.2603C9.00218 11.4905 8.81563 11.677 8.58551 11.677H7.75218C7.52206 11.677 7.33551 11.4905 7.33551 11.2603V10.427ZM7.33551 4.17701V9.17701H9.00218V4.17701H7.33551Z" fill="#FA4D5E"/>
</svg>
