<svg width="203" height="252" viewBox="0 0 203 252" fill="none" xmlns="http://www.w3.org/2000/svg">
<g clip-path="url(#clip0_440_14359)">
<path opacity="0.1" d="M202.126 0H0V252H202.126V0Z" fill="#5CB75E"/>
<g opacity="0.4">
<path d="M177.986 107.787V76.9664L160.919 43.8688L138.074 22.5783L101.067 14.665L64.0521 22.5783L41.2072 43.8688L24.1481 76.9664V107.787L22.6958 141.536L29.9261 173.653L44.9676 207.724L67.2315 233.034L101.067 240.499L134.895 233.034L157.166 207.724L172.2 173.653L179.43 141.536L177.986 107.787Z" fill="url(#paint0_linear_440_14359)"/>
</g>
<path d="M0.785047 41.0344H0V0H43.209V0.785047H0.785047V41.0344Z" fill="#5CB75E"/>
<path d="M202.126 41.0344H201.341V0.785047H158.917V0H202.126V41.0344Z" fill="#5CB75E"/>
<path d="M202.125 251.999H158.917V251.214H201.34V210.965H202.125V251.999Z" fill="#5CB75E"/>
<path d="M43.2085 251.999H-0.000488281V210.965H0.784559V251.214H43.2085V251.999Z" fill="#5CB75E"/>
<path d="M101.436 240.963L67.0272 233.371L66.9487 233.277L44.6455 207.928L44.622 207.873L29.5883 173.802L22.3267 141.56V141.513L23.7711 107.772V76.8724L40.948 43.5943L63.8713 22.2332L101.444 14.2021V240.963H101.436ZM67.4276 232.688L100.682 240.021V15.1285L64.2246 22.924L41.5054 44.0967L24.5169 77.053V107.788L23.0725 141.497L30.287 173.574L45.2814 207.52L67.4276 232.696V232.688Z" fill="#5CB75E"/>
<path d="M71.8552 111.736H52.2055L41.4268 106.257L50.8002 97.5742H72.8757L82.4455 106.257L71.863 111.736H71.8552ZM52.386 110.983H71.6746L81.1344 106.084L72.5853 98.3279H51.0907L42.7221 106.084L52.3782 110.991L52.386 110.983Z" fill="#5CB75E"/>
<path d="M101.436 192.847H71.3608L93.1773 184.926L101.444 188.655V192.847H101.436ZM75.6315 192.093H100.69V189.141L93.1459 185.734L75.6315 192.093Z" fill="#5CB75E"/>
<path d="M75.1525 44.9602L63.7144 22.7513L64.3816 22.4058L75.3095 43.6335L100.784 14.4141L101.35 14.9086L75.1525 44.9602Z" fill="#5CB75E"/>
<path d="M24.2895 77.3111L23.999 76.6124L53.2813 64.452L40.5321 43.4834L75.239 43.923L101.138 48.9081L100.996 49.646L75.1605 44.6688L41.8824 44.2527L54.3803 64.8131L24.2895 77.3111Z" fill="#5CB75E"/>
<path d="M102.056 77.61L53.085 64.8295L75.2704 43.751L102.056 77.6179V77.61ZM54.5844 64.437L100.078 76.3147L75.1997 44.85L54.5922 64.437H54.5844Z" fill="#5CB75E"/>
<path d="M86.732 172.129L82.8224 160.51L82.6576 160.424L100.588 116.085L81.2445 106.319L99.5832 78.5358L72.609 98.5074L53.5088 64.8289L54.1604 64.46L72.8445 97.4005L102.551 75.4035L82.3357 106.028L101.546 115.731L83.6153 160.079L102.26 169.75L86.7398 172.137L86.732 172.129ZM83.788 161.005L87.2422 171.289L99.8658 169.35L83.788 161.005Z" fill="#5CB75E"/>
<path d="M22.5229 141.073L41.4033 106.601L23.3787 108.234L54.333 63.2432L51.3185 97.9736L50.5648 97.9108L53.336 66.0144L24.9095 107.339L42.7379 105.73L24.3364 139.33L52.4175 110.691L63.6044 136.661L71.4 111.249L72.1222 111.469L63.7222 138.835L52.1663 112.018L23.0568 141.709L22.5229 141.073Z" fill="#5CB75E"/>
<path d="M22.7347 141.906L22.6641 141.16L63.5493 137.384L100.87 115.575L101.255 116.227L63.7848 138.114L63.6985 138.122L22.7347 141.906Z" fill="#5CB75E"/>
<path d="M60.4877 174.029H29.9258V173.276H60.2835L82.9479 159.922L83.3247 160.566L60.4877 174.029Z" fill="#5CB75E"/>
<path d="M45.3051 207.881L44.6221 207.567L60.0168 173.559L63.2905 137.714L64.0363 137.785L60.7548 173.755L60.7312 173.81L45.3051 207.881Z" fill="#5CB75E"/>
<path d="M67.6003 233.081L66.8623 232.979L72.4597 191.662L81.1737 200.533H101.067V201.287H80.8597L72.9935 193.287L67.6003 233.081Z" fill="#5CB75E"/>
<path d="M60.7006 173.451L60.0703 173.864L72.4109 192.687L73.0412 192.274L60.7006 173.451Z" fill="#5CB75E"/>
<path d="M81.3515 200.742L80.6792 201.082L100.726 240.666L101.399 240.325L81.3515 200.742Z" fill="#5CB75E"/>
<path d="M93.1457 186.206L86.6455 171.864L87.3363 171.557L93.1771 184.464L100.729 169.375L101.397 169.713L93.1457 186.206Z" fill="#5CB75E"/>
<path d="M100.69 240.963V14.2021L138.262 22.2332L138.341 22.3038L161.233 43.6336L178.362 76.8724V107.788L179.807 141.568V141.615L172.569 173.739L157.488 207.928L157.449 207.967L135.106 233.371L100.698 240.963H100.69ZM101.444 15.1285V240.029L134.698 232.696L156.844 207.52L171.862 173.504L179.053 141.497L177.609 107.803V77.053L160.62 44.0967L137.901 22.924L101.444 15.1285Z" fill="#5CB75E"/>
<path d="M149.928 111.736H130.278L130.2 111.697L119.696 106.257L129.266 97.5742H151.341L160.715 106.257L149.936 111.736H149.928ZM130.459 110.983H149.747L159.403 106.076L151.035 98.32H129.54L120.983 106.076L130.443 110.975L130.459 110.983Z" fill="#5CB75E"/>
<path d="M130.765 192.848H100.69V188.656L108.956 184.927L130.773 192.848H130.765ZM101.436 192.094H126.494L108.98 185.735L101.436 189.142V192.094Z" fill="#5CB75E"/>
<path d="M126.981 44.9602L100.784 14.9086L101.349 14.4141L126.816 43.6335L137.744 22.4058L138.411 22.7513L126.981 44.9602Z" fill="#5CB75E"/>
<path d="M177.836 77.3111L147.746 64.8131L160.251 44.2527L126.903 44.6767L101.137 49.646L100.996 48.9081L126.824 43.9309L161.594 43.4834L148.845 64.452L178.127 76.6124L177.836 77.3111Z" fill="#5CB75E"/>
<path d="M100.07 77.6101L126.856 43.7432L149.041 64.8217L100.07 77.6022V77.6101ZM126.934 44.8579L102.056 76.3226L147.549 64.4448L126.942 44.8579H126.934Z" fill="#5CB75E"/>
<path d="M115.394 172.13L99.8735 169.744L118.518 160.072L100.588 115.725L119.798 106.021L99.583 75.3967L129.289 97.3937L147.973 64.4531L148.625 64.8221L129.525 98.5006L102.55 78.529L120.889 106.312L101.546 116.078L119.468 160.417L119.303 160.504L115.394 172.122V172.13ZM102.26 169.351L114.884 171.29L118.346 161.006L102.268 169.351H102.26Z" fill="#5CB75E"/>
<path d="M178.731 141.355L149.959 112.018L138.403 138.835L130.003 111.469L130.726 111.249L138.521 136.661L149.716 110.691L177.789 139.33L159.388 105.73L177.216 107.339L148.79 66.0144L151.561 97.9108L150.815 97.9736L147.793 63.2432L178.747 108.234L160.722 106.601L179.611 141.081L178.731 141.355Z" fill="#5CB75E"/>
<path d="M179.391 141.906L138.341 138.114L138.27 138.075L100.871 116.227L101.255 115.575L138.576 137.384L179.462 141.16L179.391 141.906Z" fill="#5CB75E"/>
<path d="M172.2 174.029H141.638L141.551 173.982L118.801 160.566L119.185 159.922L141.842 173.276H172.2V174.029Z" fill="#5CB75E"/>
<path d="M156.821 207.881L141.371 173.755L141.363 173.693L138.089 137.785L138.835 137.714L142.109 173.559L157.504 207.567L156.821 207.881Z" fill="#5CB75E"/>
<path d="M134.526 233.081L129.132 193.287L121.266 201.287H101.067V200.533H120.952L129.674 191.662L135.271 232.979L134.526 233.081Z" fill="#5CB75E"/>
<path d="M141.437 173.443L129.08 192.255L129.71 192.669L142.067 173.857L141.437 173.443Z" fill="#5CB75E"/>
<path d="M120.769 200.728L100.729 240.315L101.401 240.656L121.441 201.069L120.769 200.728Z" fill="#5CB75E"/>
<path d="M108.988 186.206L100.729 169.713L101.397 169.375L108.949 184.464L114.798 171.557L115.481 171.864L108.988 186.206Z" fill="#5CB75E"/>
<path d="M102.739 14.6654C102.739 15.5917 101.985 16.3454 101.059 16.3454C100.133 16.3454 99.3789 15.5917 99.3789 14.6654C99.3789 13.739 100.133 12.9854 101.059 12.9854C101.985 12.9854 102.739 13.739 102.739 14.6654Z" fill="#5CB75E"/>
<path d="M65.9596 22.6175C65.9596 23.5439 65.2059 24.2975 64.2874 24.2975C63.3689 24.2975 62.6074 23.5439 62.6074 22.6175C62.6074 21.6911 63.3611 20.9375 64.2874 20.9375C65.2138 20.9375 65.9596 21.6911 65.9596 22.6175Z" fill="#5CB75E"/>
<path d="M76.8873 44.3001C76.8873 45.2265 76.1337 45.9801 75.2152 45.9801C74.2967 45.9801 73.5352 45.2265 73.5352 44.3001C73.5352 43.3738 74.2888 42.6201 75.2152 42.6201C76.1415 42.6201 76.8873 43.3738 76.8873 44.3001Z" fill="#5CB75E"/>
<path d="M102.739 48.9085C102.739 49.8349 101.985 50.5885 101.059 50.5885C100.133 50.5885 99.3789 49.8349 99.3789 48.9085C99.3789 47.9822 100.133 47.2285 101.059 47.2285C101.985 47.2285 102.739 47.9822 102.739 48.9085Z" fill="#5CB75E"/>
<path d="M43.0128 43.8685C43.0128 44.7948 42.2592 45.5485 41.3328 45.5485C40.4065 45.5485 39.6528 44.7948 39.6528 43.8685C39.6528 42.9421 40.4065 42.1885 41.3328 42.1885C42.2592 42.1885 43.0128 42.9421 43.0128 43.8685Z" fill="#5CB75E"/>
<path d="M55.5108 64.6331C55.5108 65.5595 54.7572 66.3131 53.8387 66.3131C52.9202 66.3131 52.1587 65.5595 52.1587 64.6331C52.1587 63.7068 52.9123 62.9531 53.8387 62.9531C54.765 62.9531 55.5108 63.7068 55.5108 64.6331Z" fill="#5CB75E"/>
<path d="M102.739 76.9652C102.739 77.8915 101.985 78.6452 101.067 78.6452C100.148 78.6452 99.3867 77.8915 99.3867 76.9652C99.3867 76.0388 100.14 75.2852 101.067 75.2852C101.993 75.2852 102.739 76.0388 102.739 76.9652Z" fill="#5CB75E"/>
<path d="M74.7125 97.8636C74.7125 98.79 73.9589 99.5436 73.0325 99.5436C72.1062 99.5436 71.3525 98.79 71.3525 97.8636C71.3525 96.9372 72.1062 96.1836 73.0325 96.1836C73.9589 96.1836 74.7125 96.9372 74.7125 97.8636Z" fill="#5CB75E"/>
<path d="M83.466 106.327C83.466 107.254 82.7123 108.007 81.786 108.007C80.8596 108.007 80.106 107.254 80.106 106.327C80.106 105.401 80.8596 104.647 81.786 104.647C82.7123 104.647 83.466 105.401 83.466 106.327Z" fill="#5CB75E"/>
<path d="M52.716 97.9427C52.716 98.8691 51.9623 99.6227 51.036 99.6227C50.1096 99.6227 49.356 98.8691 49.356 97.9427C49.356 97.0163 50.1096 96.2627 51.036 96.2627C51.9623 96.2627 52.716 97.0163 52.716 97.9427Z" fill="#5CB75E"/>
<path d="M43.7506 106.327C43.7506 107.254 42.9969 108.007 42.0784 108.007C41.1599 108.007 40.3984 107.254 40.3984 106.327C40.3984 105.401 41.1521 104.647 42.0784 104.647C43.0048 104.647 43.7506 105.401 43.7506 106.327Z" fill="#5CB75E"/>
<path d="M25.922 108.006C25.922 108.933 25.1684 109.686 24.242 109.686C23.3157 109.686 22.562 108.933 22.562 108.006C22.562 107.08 23.3157 106.326 24.242 106.326C25.1684 106.326 25.922 107.08 25.922 108.006Z" fill="#5CB75E"/>
<path d="M25.82 76.9652C25.82 77.8915 25.0663 78.6452 24.14 78.6452C23.2136 78.6452 22.46 77.8915 22.46 76.9652C22.46 76.0388 23.2136 75.2852 24.14 75.2852C25.0663 75.2852 25.82 76.0388 25.82 76.9652Z" fill="#5CB75E"/>
<path d="M102.739 115.629C102.739 116.556 101.985 117.309 101.059 117.309C100.133 117.309 99.3789 116.556 99.3789 115.629C99.3789 114.703 100.133 113.949 101.059 113.949C101.985 113.949 102.739 114.703 102.739 115.629Z" fill="#5CB75E"/>
<path d="M65.3395 137.744C65.3395 138.671 64.5858 139.424 63.6595 139.424C62.7331 139.424 61.9795 138.671 61.9795 137.744C61.9795 136.818 62.7331 136.064 63.6595 136.064C64.5858 136.064 65.3395 136.818 65.3395 137.744Z" fill="#5CB75E"/>
<path d="M73.441 111.359C73.441 112.285 72.6874 113.039 71.7689 113.039C70.8504 113.039 70.0889 112.285 70.0889 111.359C70.0889 110.432 70.8425 109.679 71.7689 109.679C72.6952 109.679 73.441 110.432 73.441 111.359Z" fill="#5CB75E"/>
<path d="M53.8307 111.359C53.8307 112.285 53.077 113.039 52.1585 113.039C51.24 113.039 50.4785 112.285 50.4785 111.359C50.4785 110.432 51.2322 109.679 52.1585 109.679C53.0849 109.679 53.8307 110.432 53.8307 111.359Z" fill="#5CB75E"/>
<path d="M24.3756 141.535C24.3756 142.462 23.6219 143.208 22.7034 143.208C21.7849 143.208 21.0234 142.454 21.0234 141.535C21.0234 140.617 21.7771 139.855 22.7034 139.855C23.6298 139.855 24.3756 140.609 24.3756 141.535Z" fill="#5CB75E"/>
<path d="M31.6061 173.653C31.6061 174.579 30.8524 175.325 29.9339 175.325C29.0154 175.325 28.2539 174.571 28.2539 173.653C28.2539 172.734 29.0076 171.973 29.9339 171.973C30.8603 171.973 31.6061 172.726 31.6061 173.653Z" fill="#5CB75E"/>
<path d="M62.0656 173.653C62.0656 174.579 61.3119 175.325 60.3856 175.325C59.4592 175.325 58.7056 174.571 58.7056 173.653C58.7056 172.734 59.4592 171.973 60.3856 171.973C61.3119 171.973 62.0656 172.726 62.0656 173.653Z" fill="#5CB75E"/>
<path d="M84.8087 160.243C84.8087 161.17 84.0551 161.916 83.1287 161.916C82.2024 161.916 81.4487 161.162 81.4487 160.243C81.4487 159.325 82.2024 158.563 83.1287 158.563C84.0551 158.563 84.8087 159.317 84.8087 160.243Z" fill="#5CB75E"/>
<path d="M102.739 169.546C102.739 170.473 101.985 171.218 101.059 171.218C100.133 171.218 99.3789 170.465 99.3789 169.546C99.3789 168.628 100.133 167.866 101.059 167.866C101.985 167.866 102.739 168.62 102.739 169.546Z" fill="#5CB75E"/>
<path d="M88.671 171.705C88.671 172.632 87.9174 173.378 86.991 173.378C86.0647 173.378 85.311 172.624 85.311 171.705C85.311 170.787 86.0647 170.025 86.991 170.025C87.9174 170.025 88.671 170.779 88.671 171.705Z" fill="#5CB75E"/>
<path d="M94.9435 185.333C94.9435 186.26 94.1898 187.005 93.2713 187.005C92.3528 187.005 91.5913 186.252 91.5913 185.333C91.5913 184.415 92.345 183.653 93.2713 183.653C94.1977 183.653 94.9435 184.407 94.9435 185.333Z" fill="#5CB75E"/>
<path d="M74.399 192.478C74.399 193.404 73.6454 194.15 72.7269 194.15C71.8084 194.15 71.0469 193.396 71.0469 192.478C71.0469 191.559 71.8005 190.798 72.7269 190.798C73.6532 190.798 74.399 191.551 74.399 192.478Z" fill="#5CB75E"/>
<path d="M46.6393 207.724C46.6393 208.65 45.8856 209.396 44.9671 209.396C44.0486 209.396 43.2871 208.642 43.2871 207.724C43.2871 206.805 44.0408 206.044 44.9671 206.044C45.8935 206.044 46.6393 206.798 46.6393 207.724Z" fill="#5CB75E"/>
<path d="M68.9113 233.034C68.9113 233.96 68.1576 234.706 67.2313 234.706C66.3049 234.706 65.5513 233.952 65.5513 233.034C65.5513 232.115 66.3049 231.354 67.2313 231.354C68.1576 231.354 68.9113 232.107 68.9113 233.034Z" fill="#5CB75E"/>
<path d="M83.1129 201.451C83.1129 202.378 82.3593 203.124 81.4329 203.124C80.5066 203.124 79.7529 202.37 79.7529 201.451C79.7529 200.533 80.5066 199.771 81.4329 199.771C82.3593 199.771 83.1129 200.525 83.1129 201.451Z" fill="#5CB75E"/>
<path d="M102.739 200.909C102.739 201.835 101.985 202.581 101.059 202.581C100.133 202.581 99.3789 201.835 99.3789 200.909C99.3789 199.982 100.133 199.229 101.059 199.229C101.985 199.229 102.739 199.982 102.739 200.909Z" fill="#5CB75E"/>
<path d="M102.739 192.478C102.739 193.404 101.985 194.15 101.059 194.15C100.133 194.15 99.3789 193.396 99.3789 192.478C99.3789 191.559 100.133 190.798 101.059 190.798C101.985 190.798 102.739 191.551 102.739 192.478Z" fill="#5CB75E"/>
<path d="M102.645 188.482C102.645 189.408 101.891 190.154 100.965 190.154C100.038 190.154 99.2847 189.4 99.2847 188.482C99.2847 187.563 100.038 186.802 100.965 186.802C101.891 186.802 102.645 187.555 102.645 188.482Z" fill="#5CB75E"/>
<path d="M102.739 240.498C102.739 241.425 101.985 242.171 101.059 242.171C100.133 242.171 99.3789 241.417 99.3789 240.498C99.3789 239.58 100.133 238.818 101.059 238.818C101.985 238.818 102.739 239.572 102.739 240.498Z" fill="#5CB75E"/>
<path d="M135.585 22.6175C135.585 23.5439 136.339 24.2975 137.265 24.2975C138.192 24.2975 138.938 23.5439 138.938 22.6175C138.938 21.6911 138.184 20.9375 137.265 20.9375C136.347 20.9375 135.585 21.6911 135.585 22.6175Z" fill="#5CB75E"/>
<path d="M124.657 44.3001C124.657 45.2265 125.411 45.9801 126.329 45.9801C127.248 45.9801 128.009 45.2265 128.009 44.3001C128.009 43.3738 127.256 42.6201 126.329 42.6201C125.403 42.6201 124.657 43.3738 124.657 44.3001Z" fill="#5CB75E"/>
<path d="M158.532 43.8685C158.532 44.7948 159.286 45.5485 160.212 45.5485C161.139 45.5485 161.884 44.7948 161.884 43.8685C161.884 42.9421 161.131 42.1885 160.212 42.1885C159.294 42.1885 158.532 42.9421 158.532 43.8685Z" fill="#5CB75E"/>
<path d="M146.034 64.6331C146.034 65.5595 146.788 66.3131 147.706 66.3131C148.625 66.3131 149.386 65.5595 149.386 64.6331C149.386 63.7068 148.633 62.9531 147.706 62.9531C146.78 62.9531 146.034 63.7068 146.034 64.6331Z" fill="#5CB75E"/>
<path d="M126.832 97.8636C126.832 98.79 127.586 99.5436 128.504 99.5436C129.423 99.5436 130.184 98.79 130.184 97.8636C130.184 96.9372 129.431 96.1836 128.504 96.1836C127.578 96.1836 126.832 96.9372 126.832 97.8636Z" fill="#5CB75E"/>
<path d="M118.079 106.327C118.079 107.254 118.832 108.007 119.759 108.007C120.685 108.007 121.439 107.254 121.439 106.327C121.439 105.401 120.685 104.647 119.759 104.647C118.832 104.647 118.079 105.401 118.079 106.327Z" fill="#5CB75E"/>
<path d="M148.829 97.9427C148.829 98.8691 149.583 99.6227 150.509 99.6227C151.435 99.6227 152.181 98.8691 152.181 97.9427C152.181 97.0163 151.428 96.2627 150.509 96.2627C149.591 96.2627 148.829 97.0163 148.829 97.9427Z" fill="#5CB75E"/>
<path d="M157.794 106.327C157.794 107.254 158.548 108.007 159.467 108.007C160.385 108.007 161.147 107.254 161.147 106.327C161.147 105.401 160.393 104.647 159.467 104.647C158.54 104.647 157.794 105.401 157.794 106.327Z" fill="#5CB75E"/>
<path d="M175.623 108.006C175.623 108.933 176.376 109.686 177.303 109.686C178.229 109.686 178.975 108.933 178.975 108.006C178.975 107.08 178.221 106.326 177.303 106.326C176.384 106.326 175.623 107.08 175.623 108.006Z" fill="#5CB75E"/>
<path d="M175.725 76.9652C175.725 77.8915 176.478 78.6452 177.405 78.6452C178.331 78.6452 179.077 77.8915 179.077 76.9652C179.077 76.0388 178.323 75.2852 177.405 75.2852C176.486 75.2852 175.725 76.0388 175.725 76.9652Z" fill="#5CB75E"/>
<path d="M136.206 137.744C136.206 138.671 136.959 139.424 137.886 139.424C138.812 139.424 139.558 138.671 139.558 137.744C139.558 136.818 138.804 136.064 137.886 136.064C136.967 136.064 136.206 136.818 136.206 137.744Z" fill="#5CB75E"/>
<path d="M128.104 111.359C128.104 112.285 128.857 113.039 129.776 113.039C130.694 113.039 131.456 112.285 131.456 111.359C131.456 110.432 130.702 109.679 129.776 109.679C128.849 109.679 128.104 110.432 128.104 111.359Z" fill="#5CB75E"/>
<path d="M147.714 111.359C147.714 112.285 148.468 113.039 149.386 113.039C150.305 113.039 151.066 112.285 151.066 111.359C151.066 110.432 150.313 109.679 149.386 109.679C148.46 109.679 147.714 110.432 147.714 111.359Z" fill="#5CB75E"/>
<path d="M177.169 141.535C177.169 142.462 177.923 143.208 178.849 143.208C179.775 143.208 180.529 142.454 180.529 141.535C180.529 140.617 179.775 139.855 178.849 139.855C177.923 139.855 177.169 140.609 177.169 141.535Z" fill="#5CB75E"/>
<path d="M169.939 173.653C169.939 174.579 170.693 175.325 171.611 175.325C172.53 175.325 173.291 174.571 173.291 173.653C173.291 172.734 172.537 171.973 171.611 171.973C170.685 171.973 169.939 172.726 169.939 173.653Z" fill="#5CB75E"/>
<path d="M139.479 173.653C139.479 174.579 140.233 175.325 141.151 175.325C142.07 175.325 142.831 174.571 142.831 173.653C142.831 172.734 142.078 171.973 141.151 171.973C140.225 171.973 139.479 172.726 139.479 173.653Z" fill="#5CB75E"/>
<path d="M116.729 160.243C116.729 161.17 117.482 161.916 118.401 161.916C119.319 161.916 120.081 161.162 120.081 160.243C120.081 159.325 119.327 158.563 118.401 158.563C117.474 158.563 116.729 159.317 116.729 160.243Z" fill="#5CB75E"/>
<path d="M112.874 171.705C112.874 172.632 113.628 173.378 114.554 173.378C115.48 173.378 116.234 172.624 116.234 171.705C116.234 170.787 115.48 170.025 114.554 170.025C113.628 170.025 112.874 170.779 112.874 171.705Z" fill="#5CB75E"/>
<path d="M106.602 185.333C106.602 186.26 107.355 187.005 108.274 187.005C109.192 187.005 109.954 186.252 109.954 185.333C109.954 184.415 109.2 183.653 108.274 183.653C107.347 183.653 106.602 184.407 106.602 185.333Z" fill="#5CB75E"/>
<path d="M127.138 192.478C127.138 193.404 127.892 194.15 128.818 194.15C129.745 194.15 130.498 193.396 130.498 192.478C130.498 191.559 129.745 190.798 128.818 190.798C127.892 190.798 127.138 191.551 127.138 192.478Z" fill="#5CB75E"/>
<path d="M154.905 207.724C154.905 208.65 155.659 209.396 156.577 209.396C157.496 209.396 158.257 208.642 158.257 207.724C158.257 206.805 157.504 206.044 156.577 206.044C155.651 206.044 154.905 206.798 154.905 207.724Z" fill="#5CB75E"/>
<path d="M132.634 233.034C132.634 233.96 133.387 234.706 134.306 234.706C135.224 234.706 135.986 233.952 135.986 233.034C135.986 232.115 135.232 231.354 134.306 231.354C133.38 231.354 132.634 232.107 132.634 233.034Z" fill="#5CB75E"/>
<path d="M118.432 201.451C118.432 202.378 119.186 203.124 120.112 203.124C121.038 203.124 121.784 202.37 121.784 201.451C121.784 200.533 121.031 199.771 120.112 199.771C119.194 199.771 118.432 200.525 118.432 201.451Z" fill="#5CB75E"/>
</g>
<defs>
<linearGradient id="paint0_linear_440_14359" x1="101.067" y1="240.499" x2="101.067" y2="14.665" gradientUnits="userSpaceOnUse">
<stop offset="0.23" stop-color="#7FF7F7" stop-opacity="0.2"/>
<stop offset="1" stop-color="#7FF7F7"/>
</linearGradient>
<clipPath id="clip0_440_14359">
<rect width="202.126" height="252" fill="white"/>
</clipPath>
</defs>
</svg>
