<svg width="7" height="11" viewBox="0 0 7 11" fill="none" xmlns="http://www.w3.org/2000/svg">
<path fill-rule="evenodd" clip-rule="evenodd" d="M0.839089 4.28325C0.839089 3.73096 1.2868 3.28325 1.83909 3.28325H3.20587C3.75816 3.28325 4.20587 3.73096 4.20587 4.28325V8.94001H5.41174C5.96403 8.94001 6.41174 9.38772 6.41174 9.94001C6.41174 10.4923 5.96403 10.94 5.41174 10.94H1C0.447715 10.94 0 10.4923 0 9.94001C0 9.38772 0.447715 8.94001 1 8.94001H2.20587V5.28325H1.83909C1.2868 5.28325 0.839089 4.83553 0.839089 4.28325Z" fill="white"/>
<path d="M4.43849 1.30848C4.43849 2.03114 3.85266 2.61697 3.13 2.61697C2.40735 2.61697 1.82152 2.03114 1.82152 1.30848C1.82152 0.585829 2.40735 0 3.13 0C3.85266 0 4.43849 0.585829 4.43849 1.30848Z" fill="white"/>
</svg>
