<svg width="14" height="13" viewBox="0 0 14 13" fill="none" xmlns="http://www.w3.org/2000/svg">
<path d="M11.8285 0H1.69398C1.21463 0.0351877 0.768426 0.257766 0.451995 0.619552C0.135564 0.981337 -0.0256308 1.45321 0.00332191 1.93298V12.7447C0.00322215 12.7774 0.0130037 12.8094 0.0313837 12.8365C0.0497637 12.8636 0.0758765 12.8844 0.106325 12.8964C0.136773 12.9084 0.170137 12.9109 0.202033 12.9036C0.233929 12.8963 0.262883 12.8796 0.2851 12.8555L2.79196 10.1862H11.7665C12.2642 10.1352 12.7236 9.89593 13.0508 9.51743C13.378 9.13892 13.5482 8.64973 13.5267 8.14988V1.93391C13.5556 1.45414 13.3944 0.982283 13.078 0.620498C12.7616 0.258712 12.3154 0.0361193 11.836 0.00093157L11.8285 0ZM1.94476 7.31677C1.94501 7.2192 1.98387 7.12568 2.05286 7.05669C2.12186 6.98769 2.21537 6.94883 2.31294 6.94858H6.05586C6.15351 6.94858 6.24715 6.98737 6.3162 7.05642C6.38525 7.12547 6.42405 7.21912 6.42405 7.31677C6.42405 7.41442 6.38525 7.50807 6.3162 7.57712C6.24715 7.64617 6.15351 7.68495 6.05586 7.68495H2.31482C2.26635 7.68508 2.21833 7.67566 2.17349 7.65722C2.12866 7.63879 2.0879 7.6117 2.05354 7.57751C2.01917 7.54332 1.99187 7.50269 1.97321 7.45795C1.95454 7.41322 1.94488 7.36524 1.94476 7.31677ZM1.94476 5.09262C1.94501 4.99505 1.98387 4.90154 2.05286 4.83254C2.12186 4.76355 2.21537 4.72469 2.31294 4.72444H11.2105C11.3081 4.72444 11.4018 4.76322 11.4708 4.83227C11.5399 4.90132 11.5787 4.99497 11.5787 5.09262C11.5787 5.19027 11.5399 5.28391 11.4708 5.35296C11.4018 5.42201 11.3081 5.46081 11.2105 5.46081H2.31294C2.21537 5.46056 2.12186 5.42168 2.05286 5.35269C1.98387 5.28369 1.94501 5.1902 1.94476 5.09262ZM11.2095 3.23666H2.312C2.21435 3.23666 2.12071 3.19786 2.05166 3.12882C1.98261 3.05977 1.94381 2.96613 1.94381 2.86848C1.94381 2.77083 1.98261 2.67717 2.05166 2.60812C2.12071 2.53908 2.21435 2.50028 2.312 2.50028H11.2095C11.3072 2.50028 11.4008 2.53908 11.4699 2.60812C11.5389 2.67717 11.5777 2.77083 11.5777 2.86848C11.5777 2.96613 11.5389 3.05977 11.4699 3.12882C11.4008 3.19786 11.3072 3.23666 11.2095 3.23666Z" fill="white"/>
</svg>
