<svg width="15" height="15" viewBox="0 0 15 15" fill="none" xmlns="http://www.w3.org/2000/svg">
<circle cx="7.5" cy="7.5" r="7.5" fill="url(#paint0_linear_207_23797)"/>
<path d="M4.23684 11C4.03421 11 3.86075 10.9279 3.71645 10.7836C3.57215 10.6393 3.5 10.4658 3.5 10.2632V6.21053C3.5 6.00789 3.57215 5.83443 3.71645 5.69013C3.86075 5.54583 4.03421 5.47368 4.23684 5.47368H5.71053V4.73684C5.71053 4.53421 5.78268 4.36075 5.92697 4.21645C6.07127 4.07215 6.24474 4 6.44737 4H7.92105C8.12368 4 8.29715 4.07215 8.44145 4.21645C8.58575 4.36075 8.65789 4.53421 8.65789 4.73684V5.47368H10.1316C10.3342 5.47368 10.5077 5.54583 10.652 5.69013C10.7963 5.83443 10.8684 6.00789 10.8684 6.21053V10.2632C10.8684 10.4658 10.7963 10.6393 10.652 10.7836C10.5077 10.9279 10.3342 11 10.1316 11H4.23684ZM6.44737 5.47368H7.92105V4.73684H6.44737V5.47368Z" fill="#1C1B1F"/>
<defs>
<linearGradient id="paint0_linear_207_23797" x1="1.40625" y1="2.8125" x2="13.5938" y2="12.1875" gradientUnits="userSpaceOnUse">
<stop stop-color="#D3BB7F"/>
<stop offset="0.138579" stop-color="#EACB91"/>
<stop offset="0.342224" stop-color="#FFE3BE"/>
<stop offset="0.617198" stop-color="#E7B96B"/>
<stop offset="1" stop-color="#A2772F"/>
</linearGradient>
</defs>
</svg>
