<svg width="15" height="15" viewBox="0 0 15 15" fill="none" xmlns="http://www.w3.org/2000/svg">
<circle cx="7.5" cy="7.5" r="7.5" fill="url(#paint0_linear_207_23803)"/>
<path d="M4 11V5.55556H5.55556V4H9.44444V7.11111H11V11H7.88889V9.44444H7.11111V11H4ZM4.77778 10.2222H5.55556V9.44444H4.77778V10.2222ZM4.77778 8.66667H5.55556V7.88889H4.77778V8.66667ZM4.77778 7.11111H5.55556V6.33333H4.77778V7.11111ZM6.33333 8.66667H7.11111V7.88889H6.33333V8.66667ZM6.33333 7.11111H7.11111V6.33333H6.33333V7.11111ZM6.33333 5.55556H7.11111V4.77778H6.33333V5.55556ZM7.88889 8.66667H8.66667V7.88889H7.88889V8.66667ZM7.88889 7.11111H8.66667V6.33333H7.88889V7.11111ZM7.88889 5.55556H8.66667V4.77778H7.88889V5.55556ZM9.44444 10.2222H10.2222V9.44444H9.44444V10.2222ZM9.44444 8.66667H10.2222V7.88889H9.44444V8.66667Z" fill="#1C1B1F"/>
<defs>
<linearGradient id="paint0_linear_207_23803" x1="1.40625" y1="2.8125" x2="13.5938" y2="12.1875" gradientUnits="userSpaceOnUse">
<stop stop-color="#D3BB7F"/>
<stop offset="0.138579" stop-color="#EACB91"/>
<stop offset="0.342224" stop-color="#FFE3BE"/>
<stop offset="0.617198" stop-color="#E7B96B"/>
<stop offset="1" stop-color="#A2772F"/>
</linearGradient>
</defs>
</svg>
