<svg width="19" height="19" viewBox="0 0 19 19" fill="none" xmlns="http://www.w3.org/2000/svg">
<path d="M8.78182 0.739291C9.0948 0.357015 9.67939 0.357015 9.99237 0.739291L10.9262 1.87984C11.1389 2.13967 11.4937 2.23474 11.8078 2.11609L13.1868 1.59524C13.649 1.42067 14.1553 1.71296 14.2352 2.20051L14.4736 3.65516C14.5279 3.98654 14.7877 4.24628 15.119 4.3006L16.5737 4.53901C17.0612 4.61892 17.3535 5.12519 17.179 5.58738L16.6581 6.96635C16.5395 7.28048 16.6345 7.6353 16.8944 7.84803L18.0349 8.78182C18.4172 9.0948 18.4172 9.67939 18.0349 9.99237L16.8944 10.9262C16.6345 11.1389 16.5395 11.4937 16.6581 11.8078L17.179 13.1868C17.3535 13.649 17.0612 14.1553 16.5737 14.2352L15.119 14.4736C14.7877 14.5279 14.5279 14.7877 14.4736 15.119L14.2352 16.5737C14.1553 17.0612 13.649 17.3535 13.1868 17.179L11.8078 16.6581C11.4937 16.5395 11.1389 16.6345 10.9262 16.8944L9.99237 18.0349C9.67939 18.4172 9.0948 18.4172 8.78182 18.0349L7.84803 16.8944C7.6353 16.6345 7.28048 16.5395 6.96635 16.6581L5.58738 17.179C5.12519 17.3535 4.61892 17.0612 4.53901 16.5737L4.3006 15.119C4.24628 14.7877 3.98654 14.5279 3.65516 14.4736L2.20051 14.2352C1.71296 14.1553 1.42067 13.649 1.59524 13.1868L2.11609 11.8078C2.23474 11.4937 2.13967 11.1389 1.87984 10.9262L0.739291 9.99237C0.357015 9.67939 0.357015 9.0948 0.739291 8.78182L1.87984 7.84803C2.13967 7.6353 2.23474 7.28048 2.11609 6.96635L1.59524 5.58738C1.42067 5.12519 1.71296 4.61892 2.20051 4.53901L3.65516 4.3006C3.98654 4.24628 4.24628 3.98654 4.3006 3.65516L4.53901 2.20051C4.61892 1.71296 5.12519 1.42067 5.58738 1.59524L6.96635 2.11609C7.28048 2.23474 7.6353 2.13967 7.84803 1.87984L8.78182 0.739291Z" fill="#D8DEE8"/>
<path d="M12.7321 6.04214C13.1395 6.44931 13.1395 7.10985 12.7321 7.51702L7.51702 12.7321C7.1096 13.1395 6.44957 13.1395 6.04214 12.7321C5.63472 12.3249 5.63472 11.6644 6.04214 11.2572L11.2572 6.04214C11.6646 5.63472 12.3247 5.63472 12.7321 6.04214Z" fill="#9AA8BA"/>
<path d="M8.60485 7.30109C8.60485 8.02121 8.02121 8.60485 7.30109 8.60485C6.58096 8.60485 5.99732 8.02121 5.99732 7.30109C5.99732 6.58096 6.58096 5.99732 7.30109 5.99732C8.02121 5.99732 8.60485 6.58096 8.60485 7.30109Z" fill="#9AA8BA"/>
<path d="M11.4731 12.7769C12.1933 12.7769 12.7769 12.1933 12.7769 11.4731C12.7769 10.753 12.1933 10.1694 11.4731 10.1694C10.753 10.1694 10.1694 10.753 10.1694 11.4731C10.1694 12.1933 10.753 12.7769 11.4731 12.7769Z" fill="#9AA8BA"/>
</svg>
