<svg width="46" height="46" viewBox="0 0 46 46" fill="none" xmlns="http://www.w3.org/2000/svg">
<path d="M22.2262 0.945073C22.6263 0.456391 23.3737 0.45639 23.7738 0.945073L27.1881 5.11546C27.4601 5.4476 27.9137 5.56914 28.3152 5.41746L33.3574 3.513C33.9482 3.28983 34.5954 3.66349 34.6976 4.28675L35.5693 9.6056C35.6387 10.0292 35.9708 10.3613 36.3944 10.4307L41.7133 11.3024C42.3365 11.4046 42.7102 12.0518 42.487 12.6426L40.5825 17.6848C40.4309 18.0863 40.5524 18.5399 40.8845 18.8119L45.0549 22.2262C45.5436 22.6263 45.5436 23.3737 45.0549 23.7738L40.8845 27.1881C40.5524 27.4601 40.4309 27.9137 40.5825 28.3152L42.487 33.3574C42.7102 33.9482 42.3365 34.5954 41.7133 34.6976L36.3944 35.5693C35.9708 35.6387 35.6387 35.9708 35.5693 36.3944L34.6976 41.7133C34.5954 42.3365 33.9482 42.7102 33.3574 42.487L28.3152 40.5825C27.9137 40.4309 27.4601 40.5524 27.1881 40.8845L23.7738 45.0549C23.3737 45.5436 22.6263 45.5436 22.2262 45.0549L18.8119 40.8845C18.5399 40.5524 18.0863 40.4309 17.6848 40.5825L12.6426 42.487C12.0518 42.7102 11.4046 42.3365 11.3024 41.7133L10.4307 36.3944C10.3613 35.9708 10.0292 35.6387 9.6056 35.5693L4.28675 34.6976C3.66349 34.5954 3.28983 33.9482 3.513 33.3574L5.41746 28.3152C5.56914 27.9137 5.4476 27.4601 5.11546 27.1881L0.945073 23.7738C0.456391 23.3737 0.45639 22.6263 0.945073 22.2262L5.11546 18.8119C5.4476 18.5399 5.56914 18.0863 5.41746 17.6848L3.513 12.6426C3.28983 12.0518 3.66349 11.4046 4.28675 11.3024L9.6056 10.4307C10.0292 10.3613 10.3613 10.0292 10.4307 9.6056L11.3024 4.28675C11.4046 3.66349 12.0518 3.28983 12.6426 3.513L17.6848 5.41746C18.0863 5.56914 18.5399 5.4476 18.8119 5.11546L22.2262 0.945073Z" fill="url(#paint0_linear_294_28370)"/>
<path d="M31.1959 14.8034C32.1941 15.801 32.1941 17.4195 31.1959 18.4171L18.4181 31.1949C17.4198 32.1931 15.8026 32.1931 14.8044 31.1949C13.8061 30.1972 13.8061 28.5788 14.8044 27.5812L27.5821 14.8034C28.5804 13.8051 30.1976 13.8051 31.1959 14.8034Z" fill="white"/>
<path d="M21.0834 17.888C21.0834 19.6525 19.6534 21.0825 17.889 21.0825C16.1246 21.0825 14.6946 19.6525 14.6946 17.888C14.6946 16.1236 16.1246 14.6936 17.889 14.6936C19.6534 14.6936 21.0834 16.1236 21.0834 17.888Z" fill="white"/>
<path d="M28.1112 31.3047C29.8757 31.3047 31.3057 29.8747 31.3057 28.1102C31.3057 26.3458 29.8757 24.9158 28.1112 24.9158C26.3468 24.9158 24.9168 26.3458 24.9168 28.1102C24.9168 29.8747 26.3468 31.3047 28.1112 31.3047Z" fill="white"/>
<defs>
<linearGradient id="paint0_linear_294_28370" x1="35.7778" y1="8.94444" x2="8.94444" y2="38.3333" gradientUnits="userSpaceOnUse">
<stop stop-color="#2262CE"/>
<stop offset="1" stop-color="#428BEA"/>
</linearGradient>
</defs>
</svg>
