<svg width="38" height="35" viewBox="0 0 38 35" fill="none" xmlns="http://www.w3.org/2000/svg">
<path d="M18.5863 29.154L9.57705 34.4741C9.17905 34.7223 8.76296 34.8287 8.32877 34.7933C7.89459 34.7578 7.51468 34.6159 7.18905 34.3677C6.86341 34.1194 6.61014 33.8091 6.42923 33.4367C6.24832 33.0642 6.21214 32.6475 6.32068 32.1864L8.70868 22.1315L0.730594 15.375C0.368776 15.0558 0.14264 14.6923 0.0521853 14.2844C-0.0382692 13.8765 -0.0111329 13.4775 0.133594 13.0874C0.278322 12.6972 0.495412 12.378 0.784867 12.1298C1.07432 11.8815 1.47232 11.7219 1.97887 11.651L12.5078 10.7465L16.5782 1.27682C16.7591 0.851211 17.0395 0.532007 17.4195 0.319204C17.7994 0.106401 18.1883 0 18.5863 0C18.9843 0 19.3733 0.106401 19.7532 0.319204C20.1331 0.532007 20.4135 0.851211 20.5944 1.27682L24.6649 10.7465L35.1938 11.651C35.7003 11.7219 36.0983 11.8815 36.3878 12.1298C36.6772 12.378 36.8943 12.6972 37.039 13.0874C37.1838 13.4775 37.2109 13.8765 37.1205 14.2844C37.03 14.6923 36.8039 15.0558 36.442 15.375L28.464 22.1315L30.852 32.1864C30.9605 32.6475 30.9243 33.0642 30.7434 33.4367C30.5625 33.8091 30.3092 34.1194 29.9836 34.3677C29.658 34.6159 29.278 34.7578 28.8439 34.7933C28.4097 34.8287 27.9936 34.7223 27.5956 34.4741L18.5863 29.154Z" fill="#E7E7E7"/>
</svg>
