<svg width="75" height="75" viewBox="0 0 75 75" fill="none" xmlns="http://www.w3.org/2000/svg">
<path d="M37.5 0C16.8375 0 0 16.8375 0 37.5C0 58.1625 16.8375 75 37.5 75C58.1625 75 75 58.1625 75 37.5C75 16.8375 58.1625 0 37.5 0ZM53.8125 50.8875C53.2875 51.7875 52.35 52.275 51.375 52.275C50.8875 52.275 50.4 52.1625 49.95 51.8625L38.325 44.925C35.4375 43.2 33.3 39.4125 33.3 36.075V20.7C33.3 19.1625 34.575 17.8875 36.1125 17.8875C37.65 17.8875 38.925 19.1625 38.925 20.7V36.075C38.925 37.425 40.05 39.4125 41.2125 40.0875L52.8375 47.025C54.1875 47.8125 54.6375 49.5375 53.8125 50.8875Z" fill="#FF9900"/>
</svg>
