<svg width="75" height="75" viewBox="0 0 75 75" fill="none" xmlns="http://www.w3.org/2000/svg">
<path d="M37.5 0C16.8375 0 0 16.8375 0 37.5C0 58.1625 16.8375 75 37.5 75C58.1625 75 75 58.1625 75 37.5C75 16.8375 58.1625 0 37.5 0ZM55.425 28.875L34.1625 50.1375C33.6375 50.6625 32.925 50.9625 32.175 50.9625C31.425 50.9625 30.7125 50.6625 30.1875 50.1375L19.575 39.525C18.4875 38.4375 18.4875 36.6375 19.575 35.55C20.6625 34.4625 22.4625 34.4625 23.55 35.55L32.175 44.175L51.45 24.9C52.5375 23.8125 54.3375 23.8125 55.425 24.9C56.5125 25.9875 56.5125 27.75 55.425 28.875Z" fill="#0EAD36"/>
</svg>
