<svg width="295" height="277" viewBox="0 0 295 277" fill="none" xmlns="http://www.w3.org/2000/svg">
<g clip-path="url(#clip0_207_13436)">
<rect width="295" height="277" rx="16" fill="#F2F5F9"/>
<path d="M-0.4966 74.9449C-10.4365 74.6421 -20.3501 74.3323 -30.29 74.0296C-35.1044 73.879 -35.157 81.379 -30.3426 81.5296C-20.4026 81.8323 -10.4891 82.1421 -0.549143 82.4448C4.29162 82.5885 4.31781 75.0955 -0.4966 74.9449Z" fill="#BEC5D2"/>
<path d="M7.57727 35.9158C-2.90709 31.5781 -13.4249 27.2212 -23.9092 22.8835C-28.3548 21.0521 -30.2848 28.2924 -25.899 30.1116C-15.4147 34.4493 -4.89689 38.8063 5.58746 43.1439C10.0401 45.0017 11.9701 37.7613 7.57727 35.9158Z" fill="#BEC5D2"/>
<path d="M27.5901 13.2924C18.3329 4.78408 9.49871 -4.14832 1.07543 -13.445C-2.1682 -17.011 -7.4401 -11.7 -4.1894 -8.10776C4.24095 1.21532 13.0944 10.1143 22.3253 18.6297C25.848 21.8666 31.1199 16.5556 27.5901 13.2924Z" fill="#BEC5D2"/>
<path d="M125.206 373.072L271.655 333.775C283.542 330.59 290.68 318.225 287.469 306.345L206.6 4.96132C203.415 -6.92543 191.05 -14.0643 179.171 -10.8529L32.7222 28.4444C20.8354 31.6294 13.6965 43.9943 16.9079 55.874L97.7958 357.225C100.962 369.145 113.319 376.257 125.206 373.072Z" fill="#242E49"/>
<path d="M196.405 13.9368C194.131 5.45007 185.308 0.356386 176.821 2.63041L41.4951 38.9474C33.0084 41.2215 27.9147 50.044 30.1887 58.5308L34.1223 73.2113L200.352 28.6701L196.405 13.9368Z" fill="#DCE1E8"/>
<path d="M269.97 288.067L103.74 332.609L91.3175 286.248L80.938 247.616L56.1393 155.277L45.7367 116.454L34.1213 73.2104L200.351 28.6692L213.033 75.8928L224.177 117.483L245.298 196.203L256.532 238.023L269.97 288.067Z" fill="white"/>
<path d="M212.491 215.779C232.458 181.195 220.609 136.972 186.025 117.005C151.44 97.0376 107.218 108.887 87.2505 143.471C67.2833 178.056 79.1327 222.278 113.717 242.245C148.301 262.213 192.524 250.363 212.491 215.779Z" fill="#8A3FFC"/>
<path opacity="0.69" d="M245.301 196.203C245.132 197.152 244.955 198.075 244.733 199.039C243.636 204.22 242.146 209.308 240.317 214.29C240.114 214.796 239.91 215.303 239.733 215.802C239.702 215.896 239.67 215.989 239.658 216.048C239.194 217.162 238.703 218.282 238.179 219.383C237.099 221.678 235.959 223.961 234.719 226.186C233.479 228.41 232.198 230.59 230.798 232.745C230.121 233.802 229.391 234.873 228.681 235.911C228.416 236.293 226.726 238.525 226.591 238.759C223.537 242.543 220.328 246.172 216.831 249.566C214.995 251.358 213.077 253.058 211.12 254.712C210.728 255.043 209.285 256.193 208.893 256.524C208.749 256.619 208.586 256.747 208.559 256.754C207.801 257.297 207.068 257.832 206.31 258.374C201.861 261.487 197.182 264.266 192.344 266.664C191.143 267.24 189.968 267.809 188.759 268.359C188.28 268.573 186.472 269.311 186.328 269.406C183.895 270.341 181.44 271.196 178.938 271.98C173.539 273.652 168.077 274.777 162.507 275.704C162.48 275.711 162.236 275.749 161.965 275.793C161.53 275.853 160.79 275.938 160.618 275.928C159.296 276.056 157.974 276.184 156.665 276.253C153.862 276.439 151.049 276.486 148.216 276.454C145.806 276.422 143.375 276.311 140.976 276.106C139.737 276.015 138.51 275.863 137.283 275.712C137.07 275.656 134.695 275.332 134.276 275.246C129.238 274.364 124.246 273.131 119.381 271.525C118.17 271.115 116.958 270.706 115.766 270.262C115.326 270.098 113.847 269.534 113.475 269.407C111.181 268.44 108.92 267.379 106.704 266.278C101.997 263.895 97.4841 261.178 93.1707 258.153C92.5814 257.746 91.985 257.312 91.3886 256.879C91.3552 256.86 91.2145 256.756 91.0737 256.652C90.7447 256.373 89.1543 255.076 88.7989 254.804C86.6911 253.053 84.6483 251.227 82.6968 249.321C82.1178 248.741 81.5459 248.188 80.9669 247.609L91.3464 286.241C125.821 304.941 168.229 306.233 204.381 288.496C226.681 277.577 244.777 259.508 256.588 238.009L245.301 196.203ZM59.2202 145.469C59.3971 144.97 60.0893 143.231 60.1138 143.111C60.5853 142.025 61.0568 140.938 61.5617 139.87C63.7847 135.094 66.3278 130.458 69.2191 126.067C69.9227 125.003 70.6262 123.939 71.3703 122.92C71.6159 122.572 72.6969 121.124 73.0461 120.635C73.1953 120.454 73.3181 120.279 73.3638 120.239C73.8377 119.688 74.2782 119.118 74.745 118.541C75.6858 117.413 76.6336 116.312 77.6148 115.23C81.1623 111.285 85.0054 107.6 89.0914 104.188C89.4373 103.898 90.9598 102.727 91.1161 102.573C91.0897 102.58 91.0897 102.58 91.0633 102.587C91.8677 102.004 92.6385 101.402 93.4499 100.845C95.733 99.245 98.0706 97.743 100.482 96.3058C102.75 94.9638 105.072 93.7201 107.415 92.5555C108.439 92.0551 109.463 91.5547 110.495 91.0806C110.948 90.8744 113.36 89.8609 113.386 89.8538C118.384 87.9496 123.513 86.3211 128.755 85.1144C131.392 84.5206 134.051 84.006 136.712 83.6038C136.903 83.5807 137.689 83.455 138.125 83.3947C138.342 83.3646 138.56 83.3344 138.594 83.3537C140.107 83.2025 141.627 83.0776 143.128 82.9862C148.543 82.637 153.958 82.7114 159.367 83.183C160.408 83.2714 161.429 83.3932 162.477 83.5079C162.743 83.5498 164.508 83.8113 164.979 83.8828C167.674 84.3471 170.397 84.9169 173.062 85.5869C175.541 86.1938 177.996 86.9203 180.438 87.7066C181.65 88.1164 182.861 88.5262 184.054 88.9695C184.56 89.1728 185.059 89.3497 185.592 89.5459C185.812 89.6283 185.965 89.672 186.092 89.7229C186.125 89.7422 186.151 89.7351 186.185 89.7544C191.031 91.8174 195.738 94.2004 200.251 96.9176C202.437 98.2244 204.566 99.6315 206.649 101.079C207.345 101.57 208.016 102.069 208.686 102.567C208.8 102.678 211.061 104.473 211.423 104.771C215.498 108.171 219.287 111.874 222.828 115.812C223.307 116.333 223.766 116.888 224.226 117.443L213.062 75.8859C197.279 66.2166 179.212 60.0407 160.034 58.2586C114.611 54.0453 69.1543 77.7508 45.7587 116.421L56.1947 155.263C56.4186 154.412 56.6497 153.588 56.9 152.73C57.5545 150.323 58.3407 147.88 59.2202 145.469Z" fill="#E6DAFF"/>
<path d="M160.243 184.701C161.443 189.181 158.773 193.767 154.319 194.96C149.839 196.161 145.253 193.491 144.06 189.037C142.859 184.556 145.529 179.971 149.983 178.777C154.464 177.577 159.049 180.247 160.243 184.701Z" fill="#8A3FFC"/>
<circle cx="151.861" cy="176.541" r="39.586" fill="#8A3FFC"/>
<path d="M143.166 193.354L129.324 179.511C128.476 178.664 127.44 178.24 126.216 178.24C124.992 178.24 123.909 178.711 122.967 179.653C122.12 180.5 121.696 181.536 121.696 182.76C121.696 183.984 122.12 185.02 122.967 185.868L140.2 203.241C141.048 204.089 142.036 204.513 143.166 204.513C144.296 204.513 145.285 204.089 146.133 203.241L179.891 169.483C180.833 168.541 181.304 167.458 181.304 166.234C181.304 165.01 180.833 163.927 179.891 162.985C178.95 162.138 177.843 161.737 176.572 161.784C175.301 161.832 174.241 162.279 173.394 163.126L143.166 193.354ZM151.5 237C143.778 237 136.48 235.517 129.606 232.551C122.732 229.584 116.729 225.535 111.597 220.403C106.465 215.271 102.416 209.268 99.4494 202.394C96.4831 195.52 95 188.222 95 180.5C95 172.684 96.4831 165.339 99.4494 158.465C102.416 151.591 106.465 145.611 111.597 140.526C116.729 135.441 122.732 131.416 129.606 128.449C136.48 125.483 143.778 124 151.5 124C159.316 124 166.661 125.483 173.535 128.449C180.409 131.416 186.389 135.441 191.474 140.526C196.559 145.611 200.584 151.591 203.551 158.465C206.517 165.339 208 172.684 208 180.5C208 188.222 206.517 195.52 203.551 202.394C200.584 209.268 196.559 215.271 191.474 220.403C186.389 225.535 180.409 229.584 173.535 232.551C166.661 235.517 159.316 237 151.5 237Z" fill="white"/>
<path d="M185.83 18.4363L162.61 24.6581C160.133 25.3219 157.586 23.8292 156.929 21.3781C156.265 18.9005 157.758 16.3537 160.209 15.6969L183.429 9.4751C185.907 8.81126 188.454 10.304 189.11 12.7551C189.767 15.2063 188.281 17.7795 185.83 18.4363Z" fill="white"/>
<path d="M39.7214 56.2578C43.3322 55.2903 41.8473 49.643 38.2101 50.6176C34.5992 51.5851 36.1106 57.2254 39.7214 56.2578Z" fill="white"/>
<path d="M52.6572 51.9166C56.268 50.9491 54.783 45.3018 51.1459 46.2764C47.5087 47.2509 49.02 52.8912 52.6572 51.9166Z" fill="white"/>
<path d="M67.195 47.1459C70.8058 46.1784 69.3209 40.5311 65.6837 41.5057C62.0729 42.4732 63.5842 48.1135 67.195 47.1459Z" fill="white"/>
</g>
<defs>
<clipPath id="clip0_207_13436">
<rect width="295" height="277" rx="16" fill="white"/>
</clipPath>
</defs>
</svg>
