<svg width="28" height="25" viewBox="0 0 28 25" fill="none" xmlns="http://www.w3.org/2000/svg">
<path fill-rule="evenodd" clip-rule="evenodd" d="M2.6555 5.79564L17.4365 0.264755C19.8903 -0.653053 21.8978 0.892881 21.8978 3.70407V6.79064H24.0203C25.6866 6.79064 27.0455 8.15763 27.0455 9.83375V13.5774C27.0455 13.7899 26.8726 13.9687 26.6567 13.9687H24.145C23.4822 13.9687 22.9396 14.5145 22.9396 15.1811V17.2872C22.9396 17.9538 23.4822 18.4996 24.145 18.4996H26.6567C26.8726 18.4996 27.0455 18.6784 27.0455 18.8909V21.8857C27.0455 23.5571 25.6866 24.9289 24.0203 24.9289H3.02057C1.35883 24.9289 0 23.5571 0 21.8857V14.4518V9.83375V9.82899C0 8.15764 1.19569 6.34145 2.6555 5.79564ZM25.3314 15.0265C25.9941 15.0265 26.5272 15.5676 26.5272 16.2342C26.5272 16.9008 25.9943 17.4417 25.3314 17.4417C24.6685 17.4417 24.1309 16.9007 24.1309 16.2342C24.1309 15.5676 24.6686 15.0265 25.3314 15.0265ZM19.5687 6.79064V3.70407C19.5687 2.71384 19.2758 2.07618 18.2482 2.46266L6.67966 6.79064H19.5687Z" fill="#F3004C"/>
</svg>
