<svg width="15" height="15" viewBox="0 0 15 15" fill="none" xmlns="http://www.w3.org/2000/svg">
<circle cx="7.5" cy="7.5" r="7.5" fill="url(#paint0_linear_0_15)"/>
<path d="M10.6834 10.7812H4.39069C4.30941 10.7812 4.23622 10.7321 4.20551 10.6568L2.54455 6.5859C2.47482 6.415 2.65408 6.24891 2.81917 6.33146L4.97907 7.41141C5.07719 7.46047 5.19653 7.42133 5.24653 7.32367L7.37539 3.16574C7.45024 3.01956 7.65961 3.02089 7.73259 3.16801L9.79213 7.32026C9.84132 7.41943 9.96173 7.45978 10.0607 7.41027L12.2233 6.329C12.3878 6.24676 12.5667 6.41142 12.4984 6.58217L10.8691 10.6555C10.8387 10.7315 10.7652 10.7812 10.6834 10.7812Z" fill="black"/>
<defs>
<linearGradient id="paint0_linear_0_15" x1="1.40625" y1="2.8125" x2="13.5938" y2="12.1875" gradientUnits="userSpaceOnUse">
<stop stop-color="#D3BB7F"/>
<stop offset="0.138579" stop-color="#EACB91"/>
<stop offset="0.342224" stop-color="#FFE3BE"/>
<stop offset="0.617198" stop-color="#E7B96B"/>
<stop offset="1" stop-color="#A2772F"/>
</linearGradient>
</defs>
</svg>
