<svg width="65" height="163" viewBox="0 0 65 163" fill="none" xmlns="http://www.w3.org/2000/svg">
<g opacity="0.57">
<path d="M33.5901 157.487H30.8542C27.0422 157.487 23.9521 154.397 23.9521 150.585V79.7164C23.9521 75.9044 27.0422 72.8145 30.8542 72.8145H33.5901C37.4021 72.8145 40.4922 75.9044 40.4922 79.7164V150.585C40.4922 154.396 37.4021 157.487 33.5901 157.487Z" fill="#606060"/>
</g>
<path d="M9.08527 49.8085L8.88826 49.7275C8.61426 49.6145 8.48327 49.2985 8.59627 49.0255L9.95326 45.7315C10.0663 45.4575 10.3823 45.3265 10.6553 45.4385L10.8523 45.5195C11.1253 45.6325 11.2573 45.9485 11.1443 46.2215L9.78726 49.5155C9.67526 49.7895 9.35927 49.9215 9.08527 49.8085Z" fill="#FFDAA4"/>
<path d="M55.3594 49.8085L55.5564 49.7275C55.8304 49.6145 55.9614 49.2985 55.8484 49.0255L54.4914 45.7315C54.3784 45.4575 54.0624 45.3265 53.7894 45.4385L53.5924 45.5195C53.3184 45.6325 53.1874 45.9485 53.3004 46.2215L54.6574 49.5155C54.7704 49.7895 55.0864 49.9215 55.3594 49.8085Z" fill="#FFDAA4"/>
<path d="M5.54108 42.5972C5.21308 42.5972 4.88608 42.4623 4.65108 42.1973C4.21408 41.7053 4.25908 40.9543 4.75108 40.5173L8.49008 37.1973C8.88908 36.8423 9.47608 36.7963 9.92508 37.0873L13.6031 39.4583C14.1551 39.8143 14.3151 40.5503 13.9591 41.1033C13.6031 41.6563 12.8661 41.8152 12.3141 41.4592L9.39607 39.5783L6.33308 42.2992C6.10408 42.4982 5.82208 42.5972 5.54108 42.5972Z" fill="#848484"/>
<path d="M58.9037 42.5975C58.6247 42.5975 58.3437 42.4995 58.1177 42.2995L55.0237 39.5725L52.0747 41.4595C51.5227 41.8125 50.7857 41.6515 50.4307 41.0985C50.0767 40.5445 50.2387 39.8095 50.7917 39.4545L54.4967 37.0835C54.9437 36.7985 55.5267 36.8425 55.9257 37.1935L59.6927 40.5135C60.1857 40.9475 60.2327 41.6995 59.7977 42.1925C59.5617 42.4615 59.2337 42.5975 58.9037 42.5975Z" fill="#848484"/>
<path d="M33.5901 162.9H30.8542C27.0422 162.9 23.9521 159.81 23.9521 155.998V84.0817C23.9521 80.2697 27.0422 77.1797 30.8542 77.1797H33.5901C37.4021 77.1797 40.4922 80.2697 40.4922 84.0817V155.998C40.4922 159.809 37.4021 162.9 33.5901 162.9Z" fill="#4C4C4C"/>
<g opacity="0.5">
<path d="M33.5931 157.19H30.8571C27.0451 157.19 23.9551 154.1 23.9551 150.288V79.4196C23.9551 75.6076 27.0451 72.5176 30.8571 72.5176H33.5931C37.4051 72.5176 40.4951 75.6076 40.4951 79.4196V150.288C40.4951 154.1 37.4051 157.19 33.5931 157.19Z" fill="#606060"/>
</g>
<path d="M38.2422 6.021V29.004C38.2422 32.328 35.5452 35.025 32.2212 35.025C28.8972 35.025 26.2002 32.328 26.2002 29.004V6.021C26.2002 2.697 28.8972 0 32.2212 0C33.8792 0 35.3862 0.674002 36.4812 1.761C37.5682 2.856 38.2422 4.355 38.2422 6.021Z" fill="#4C4C4C"/>
<g opacity="0.57">
<path d="M38.2422 14.978V37.961C38.2422 41.285 35.5452 43.982 32.2212 43.982C28.8972 43.982 26.2002 41.285 26.2002 37.961V14.978C26.2002 11.654 28.8972 8.95703 32.2212 8.95703C33.8792 8.95703 35.3862 9.63102 36.4812 10.718C37.5682 11.813 38.2422 13.312 38.2422 14.978Z" fill="#606060"/>
</g>
<path d="M39.6222 18.5485V42.7685C39.6222 46.6715 36.5842 49.8765 32.7362 50.1465H32.7122C32.5532 50.1545 32.3872 50.1625 32.2202 50.1625C32.0452 50.1625 31.8712 50.1545 31.7042 50.1465C27.8562 49.8765 24.8262 46.6715 24.8262 42.7685V18.5485C24.8262 16.9545 25.3342 15.4705 26.1982 14.2565C27.1342 12.9395 28.4832 11.9475 30.0532 11.4635C30.5772 11.3045 31.1322 11.2015 31.7032 11.1625C31.8702 11.1545 32.0442 11.1465 32.2192 11.1465C32.3862 11.1465 32.5522 11.1545 32.7112 11.1625H32.7352C33.3062 11.2025 33.8612 11.3055 34.3932 11.4795C35.5592 11.8285 36.6062 12.4635 37.4552 13.3115C37.7412 13.5975 38.0022 13.9065 38.2402 14.2395C39.1152 15.4545 39.6222 16.9465 39.6222 18.5485Z" fill="#FF4040"/>
<g opacity="0.25">
<path d="M39.6221 18.5485V42.7685C39.6221 46.8465 36.3061 50.1625 32.2201 50.1625C32.0451 50.1625 31.8711 50.1545 31.7041 50.1465C35.5521 49.8765 38.5901 46.6715 38.5901 42.7685V18.5485C38.5901 16.9465 38.0821 15.4545 37.2101 14.2405C36.9721 13.9075 36.7101 13.5975 36.4251 13.3125C35.1951 12.0825 33.5371 11.2895 31.7051 11.1625C31.8721 11.1545 32.0461 11.1465 32.2211 11.1465C34.2601 11.1465 36.1161 11.9715 37.4571 13.3125C37.7431 13.5985 38.0041 13.9075 38.2421 14.2405C39.1151 15.4545 39.6221 16.9465 39.6221 18.5485Z" fill="#606060"/>
</g>
<g opacity="0.15">
<path d="M24.8271 18.5485V42.7685C24.8271 46.8465 28.1432 50.1625 32.2292 50.1625C32.4032 50.1625 32.5781 50.1545 32.7451 50.1465C28.8971 49.8765 25.8592 46.6715 25.8592 42.7685V18.5485C25.8592 16.9465 26.3672 15.4545 27.2392 14.2405C27.4772 13.9075 27.7392 13.5975 28.0242 13.3125C29.2542 12.0825 30.9122 11.2895 32.7442 11.1625C32.5772 11.1545 32.4031 11.1465 32.2281 11.1465C30.1891 11.1465 28.3332 11.9715 26.9922 13.3125C26.7062 13.5985 26.4452 13.9075 26.2072 14.2405C25.3352 15.4545 24.8271 16.9465 24.8271 18.5485Z" fill="white"/>
</g>
<path d="M46.0883 38.7695H18.3613V107.797H46.0883V38.7695Z" fill="#C43F3F"/>
<path d="M32.1513 42.4451C34.3893 42.9051 36.5153 43.6741 38.7083 44.2871C40.6263 44.8231 43.2793 44.9391 46.0883 44.9561V36.6581C46.0883 35.2061 45.6043 33.8661 44.7713 32.8031C43.6213 31.2961 41.8043 30.3281 39.7573 30.3281H24.6923C22.6453 30.3281 20.8293 31.2961 19.6783 32.8031C18.8453 33.8661 18.3613 35.2071 18.3613 36.6581V43.0291C22.6003 41.5301 27.5953 41.5091 32.1513 42.4451Z" fill="#FF4040"/>
<g opacity="0.15">
<path d="M46.0893 39.3974V85.2034C41.5043 85.1244 37.2593 85.0053 37.2593 85.0053C37.2593 85.0053 38.3543 60.8243 37.2593 55.5963C36.3793 51.3763 23.5903 50.2014 18.3623 49.8604V45.2823L21.4883 38.9673L21.4963 38.9434L22.7893 38.9673L46.0893 39.3974Z" fill="#2D2D2D"/>
</g>
<path d="M34.3937 11.4925V32.5625H30.0537V11.4755C30.5777 11.3115 31.1327 11.2045 31.7037 11.1625C31.8707 11.1545 32.0447 11.1465 32.2197 11.1465C32.3867 11.1465 32.5527 11.1545 32.7117 11.1625H32.7357C33.3077 11.2045 33.8627 11.3115 34.3937 11.4925Z" fill="white"/>
<path d="M38.6136 140.902H25.8306C23.2176 140.902 21.0996 138.784 21.0996 136.171V85.2574C21.0996 82.6444 23.2176 80.5254 25.8306 80.5254H38.6136C41.2266 80.5254 43.3446 82.6434 43.3446 85.2574V136.171C43.3446 138.783 41.2266 140.902 38.6136 140.902Z" fill="#2D2D2D"/>
<path d="M49.3796 115.198C49.3796 125.297 45.7856 134.079 40.4946 138.633V146.963C40.4946 150.779 37.9086 153.984 34.3936 154.936C33.8616 155.087 33.3146 155.174 32.7516 155.214C32.5766 155.222 32.3946 155.23 32.2196 155.23C31.4736 155.23 30.7436 155.127 30.0536 154.936C27.8406 154.341 25.9916 152.85 24.9366 150.874C24.3096 149.708 23.9526 148.375 23.9526 146.963V138.633C23.5716 138.308 23.1986 137.959 22.8416 137.586C21.8416 136.571 20.9216 135.404 20.0886 134.095C20.0726 134.087 20.0646 134.071 20.0566 134.055C16.9706 129.224 15.0586 122.56 15.0586 115.198C15.0586 100.426 22.7456 88.4551 32.2186 88.4551C32.3536 88.4551 32.4886 88.4551 32.6236 88.4711C36.6616 88.6061 40.3586 90.9301 43.2466 94.6991C43.2546 94.7071 43.2546 94.7151 43.2626 94.7231C46.9996 99.6331 49.3796 106.979 49.3796 115.198Z" fill="#FF4040"/>
<g opacity="0.25">
<path d="M49.393 115.198C49.393 125.297 45.799 134.079 40.508 138.633V146.963C40.508 151.525 36.803 155.229 32.234 155.229C32.099 155.229 31.964 155.229 31.837 155.213C36.161 154.935 39.58 151.35 39.58 146.962V138.632C44.871 134.078 48.465 125.296 48.465 115.197C48.465 106.978 46.085 99.6321 42.348 94.7211C42.34 94.7131 42.34 94.7051 42.332 94.6971C39.444 90.9291 35.747 88.6041 31.709 88.4691C31.883 88.4611 32.058 88.4531 32.233 88.4531C36.43 88.4531 40.277 90.8011 43.26 94.6961C43.268 94.7041 43.268 94.7121 43.276 94.7201C47.013 99.6331 49.393 106.979 49.393 115.198Z" fill="#606060"/>
</g>
<g opacity="0.25">
<path d="M44.3595 96.7128C41.3765 92.8178 37.5285 90.4698 33.3325 90.4698C23.8605 90.4698 16.1725 102.441 16.1725 117.213C16.1725 124.575 18.2705 131.058 21.3565 135.889C17.6195 130.986 15.0625 123.829 15.0625 115.626C15.0625 100.854 22.7495 88.8828 32.2225 88.8828C36.9575 88.8828 41.2495 91.8738 44.3595 96.7128Z" fill="white"/>
</g>
<g opacity="0.25">
<path d="M26.0462 152.441C24.7452 150.973 23.9521 149.053 23.9521 146.943L23.9542 138.633L25.0621 140.2V148.53C25.0631 149.942 25.4202 151.275 26.0462 152.441Z" fill="white"/>
</g>
<path d="M34.3937 133.691V154.936C33.8617 155.087 33.3147 155.174 32.7517 155.214C32.5767 155.222 32.3947 155.23 32.2197 155.23C31.4737 155.23 30.7437 155.127 30.0537 154.936V133.691C30.7517 133.85 31.4737 133.929 32.2197 133.929C32.9657 133.929 33.6957 133.85 34.3937 133.691Z" fill="white"/>
<g opacity="0.35">
<path d="M33.8673 136.784H30.5783C25.9953 136.784 22.2803 133.069 22.2803 128.486V97.0011C22.2803 92.4181 25.9953 88.7031 30.5783 88.7031H33.8673C38.4503 88.7031 42.1653 92.4181 42.1653 97.0011V128.486C42.1653 133.069 38.4503 136.784 33.8673 136.784Z" fill="#606060"/>
</g>
<path d="M42.1693 95.7857V123.981C42.1693 128.733 38.8373 132.7 34.3943 133.691C33.6963 133.85 32.9663 133.929 32.2203 133.929C31.4743 133.929 30.7523 133.85 30.0543 133.691C25.6043 132.699 22.2803 128.733 22.2803 123.981V95.7857C22.2803 90.2957 26.7303 85.8457 32.2203 85.8457C34.9653 85.8457 37.4483 86.9567 39.2573 88.7567C41.0503 90.5577 42.1693 93.0407 42.1693 95.7857Z" fill="#363651"/>
<g opacity="0.25">
<path d="M46.0883 36.6597V47.6867H18.3613V36.6597C18.3613 35.2077 18.8453 33.8677 19.6783 32.8047C20.9233 32.1617 22.3363 31.8047 23.8273 31.8047H40.6223C42.1143 31.8047 43.5263 32.1697 44.7713 32.8047C45.6043 33.8677 46.0883 35.2087 46.0883 36.6597Z" fill="#606060"/>
</g>
<path d="M49.7903 41.7335C49.7903 42.5105 49.6953 43.2725 49.5043 43.9945C49.0913 45.6125 48.2433 47.0565 47.0923 48.2075C47.0133 48.2865 46.9253 48.3745 46.8383 48.4455H17.5963C16.3273 47.2635 15.3833 45.7245 14.9383 43.9945C14.7483 43.2725 14.6523 42.5105 14.6523 41.7335C14.6523 39.2105 15.6833 36.9175 17.3413 35.2595C19.0073 33.5935 21.3003 32.5625 23.8233 32.5625H40.6183C45.6653 32.5625 49.7903 36.6875 49.7903 41.7335Z" fill="#FF4040"/>
<path d="M49.7903 46.2548C49.7903 46.2628 49.7903 46.2698 49.7903 46.2778C49.7873 47.4858 48.7623 48.4448 47.5533 48.4448H16.8903C15.6823 48.4448 14.6563 47.4858 14.6533 46.2778C14.6533 46.2698 14.6533 46.2628 14.6533 46.2548C14.6533 45.4778 14.7563 44.7158 14.9393 43.9938C15.3523 42.3758 16.2003 40.9318 17.3433 39.7808C19.0093 38.1228 21.3023 37.0918 23.8253 37.0918H40.6203C44.8883 37.0918 48.4903 40.0428 49.5053 43.9938C49.6953 44.7158 49.7903 45.4768 49.7903 46.2548Z" fill="#606060"/>
<path d="M7.038 53.8053C6.395 53.8053 5.86499 53.2923 5.84899 52.6453C5.77799 49.8433 7.34199 46.2073 10.498 41.8413C13.018 38.3553 16.797 36.3613 20.878 36.3613C20.908 36.3613 20.937 36.3613 20.966 36.3613L44.228 36.5223C48.39 36.5513 52.349 38.7303 54.82 42.3513C57.267 45.9393 58.537 48.9523 58.598 51.3073C58.614 51.9643 58.095 52.5103 57.438 52.5273C56.764 52.5403 56.235 52.0253 56.218 51.3683C56.171 49.5053 55.008 46.8513 52.854 43.6933C50.823 40.7163 47.593 38.9263 44.211 38.9023L20.949 38.7413C20.925 38.7413 20.902 38.7413 20.878 38.7413C17.57 38.7413 14.493 40.3763 12.426 43.2353C9.62199 47.1143 8.17 50.3473 8.227 52.5853C8.244 53.2423 7.725 53.7883 7.068 53.8053C7.059 53.8053 7.048 53.8053 7.038 53.8053Z" fill="#494949"/>
<path d="M23.2401 46.6423C24.6859 46.6423 25.8581 45.4701 25.8581 44.0243C25.8581 42.5784 24.6859 41.4062 23.2401 41.4062C21.7942 41.4062 20.6221 42.5784 20.6221 44.0243C20.6221 45.4701 21.7942 46.6423 23.2401 46.6423Z" fill="#3A3A3A"/>
<path d="M41.2049 46.6423C42.6508 46.6423 43.8229 45.4701 43.8229 44.0243C43.8229 42.5784 42.6508 41.4062 41.2049 41.4062C39.759 41.4062 38.5869 42.5784 38.5869 44.0243C38.5869 45.4701 39.759 46.6423 41.2049 46.6423Z" fill="#3A3A3A"/>
<path d="M23.2391 46.2673C24.685 46.2673 25.8571 45.0951 25.8571 43.6493C25.8571 42.2034 24.685 41.0312 23.2391 41.0312C21.7932 41.0312 20.6211 42.2034 20.6211 43.6493C20.6211 45.0951 21.7932 46.2673 23.2391 46.2673Z" fill="#444444"/>
<path d="M41.2049 46.2673C42.6508 46.2673 43.8229 45.0951 43.8229 43.6493C43.8229 42.2034 42.6508 41.0312 41.2049 41.0312C39.759 41.0312 38.5869 42.2034 38.5869 43.6493C38.5869 45.0951 39.759 46.2673 41.2049 46.2673Z" fill="#444444"/>
<path d="M31.0942 45.675C31.0942 46.002 30.8292 46.267 30.5012 46.267C30.1742 46.267 29.9082 46.002 29.9082 45.675C29.9082 45.348 30.1732 45.082 30.5012 45.082C30.8282 45.082 31.0942 45.348 31.0942 45.675Z" fill="#3A3A3A"/>
<path d="M32.8149 45.675C32.8149 46.002 32.5499 46.267 32.2219 46.267C31.8939 46.267 31.6289 46.002 31.6289 45.675C31.6289 45.348 31.8939 45.082 32.2219 45.082C32.5499 45.082 32.8149 45.348 32.8149 45.675Z" fill="#3A3A3A"/>
<path d="M34.5366 45.675C34.5366 46.002 34.2716 46.267 33.9436 46.267C33.6156 46.267 33.3506 46.002 33.3506 45.675C33.3506 45.348 33.6156 45.082 33.9436 45.082C34.2716 45.082 34.5366 45.348 34.5366 45.675Z" fill="#3A3A3A"/>
<path d="M35.9459 41.1693H28.4989C26.7759 41.1693 25.3799 39.7733 25.3799 38.0503V36.8143C25.3799 35.0913 26.7759 33.6953 28.4989 33.6953H35.9459C37.6679 33.6953 39.0649 35.0913 39.0649 36.8143V38.0503C39.0639 39.7723 37.6679 41.1693 35.9459 41.1693Z" fill="#9B9B9B"/>
<path d="M35.9459 40.4896H28.4989C26.7759 40.4896 25.3799 39.0936 25.3799 37.3706V36.1346C25.3799 34.4116 26.7759 33.0156 28.4989 33.0156H35.9459C37.6679 33.0156 39.0649 34.4116 39.0649 36.1346V37.3706C39.0639 39.0936 37.6679 40.4896 35.9459 40.4896Z" fill="#BABABA"/>
<path d="M9.94072 48.2266C9.94072 50.6676 7.97971 52.6466 5.55971 52.6466C3.14071 52.6466 1.17871 50.6676 1.17871 48.2266C1.17871 45.7856 3.13971 43.8066 5.55971 43.8066C7.97971 43.8066 9.94072 45.7856 9.94072 48.2266Z" fill="#FFDAA4"/>
<path d="M63.2747 48.2266C63.2747 50.6676 61.3137 52.6466 58.8937 52.6466C56.4747 52.6466 54.5127 50.6676 54.5127 48.2266C54.5127 45.7856 56.4737 43.8066 58.8937 43.8066C61.3137 43.8066 63.2747 45.7856 63.2747 48.2266Z" fill="#FFDAA4"/>
<g opacity="0.35">
<path d="M33.8634 125.81H30.5744C25.9914 125.81 22.2764 122.095 22.2764 117.512V86.6613C22.2764 82.0783 25.9914 78.3633 30.5744 78.3633H33.8634C38.4464 78.3633 42.1614 82.0783 42.1614 86.6613V117.512C42.1614 122.095 38.4464 125.81 33.8634 125.81Z" fill="#606060"/>
</g>
<path d="M32.2203 122.06C39.7137 122.06 45.7883 115.985 45.7883 108.492C45.7883 100.998 39.7137 94.9238 32.2203 94.9238C24.7269 94.9238 18.6523 100.998 18.6523 108.492C18.6523 115.985 24.7269 122.06 32.2203 122.06Z" fill="#111111"/>
<path d="M27.9257 117.71C26.6767 118.16 25.3507 118.213 24.1237 117.94C22.6547 117.614 21.3217 116.823 20.3927 115.676C20.0397 115.247 19.7537 114.777 19.5347 114.264L8.90874 89.4217C8.34574 88.0987 8.32374 86.6957 8.74274 85.4337C9.30774 83.7707 10.6407 82.3487 12.5217 81.6817C13.4667 81.3407 14.4477 81.2267 15.4047 81.3087C17.7837 81.5137 19.9788 82.9367 20.9128 85.1267L25.7377 96.4187L26.5938 98.4037L31.5387 109.969C31.7307 110.423 31.8587 110.88 31.9307 111.34C32.3357 114.021 30.7437 116.702 27.9257 117.71Z" fill="#111111"/>
<path d="M31.9302 111.342C31.3652 113.005 30.0322 114.427 28.1512 115.094C25.3992 116.075 22.3242 115.166 20.6182 113.06C20.2652 112.632 19.9792 112.161 19.7602 111.649L19.3352 110.665L9.13419 86.8066C9.13519 86.7986 9.12718 86.7976 9.12718 86.7896C8.94318 86.3436 8.81319 85.9026 8.74919 85.4516C8.74219 85.4426 8.74219 85.4426 8.74219 85.4346C8.77519 85.3336 8.81418 85.2416 8.85518 85.1416C8.89518 85.0416 8.93619 84.9416 8.98419 84.8506C9.00519 84.7966 9.03318 84.7436 9.06218 84.6896C9.11018 84.5906 9.16719 84.4916 9.22319 84.3926C9.28919 84.2706 9.36319 84.1576 9.44519 84.0376C9.51819 83.9246 9.60018 83.8116 9.68918 83.7006C9.77818 83.5886 9.87519 83.4776 9.98119 83.3596C10.0612 83.2626 10.1572 83.1676 10.2602 83.0736C10.3562 82.9706 10.4682 82.8766 10.5802 82.7826L10.6492 82.7246C10.8462 82.5586 11.0662 82.4106 11.2932 82.2706C11.4022 82.2006 11.5202 82.1306 11.6452 82.0696C11.9202 81.9256 12.2182 81.7926 12.5222 81.6836C13.4672 81.3426 14.4482 81.2286 15.4052 81.3106C17.7842 81.5156 19.9792 82.9386 20.9132 85.1286L25.7382 96.4206C26.0842 96.1876 26.4452 95.9796 26.8122 95.7806L27.7142 97.8806L31.7642 107.355C32.3262 108.677 32.3492 110.08 31.9302 111.342Z" fill="#2D2D2D"/>
<g opacity="0.15">
<path d="M19.157 85.6296C18.079 84.6526 16.665 84.0536 15.179 83.9256C14.223 83.8436 13.241 83.9576 12.296 84.2986C10.916 84.7846 9.82701 85.6866 9.12701 86.7886C8.94301 86.3426 8.81302 85.9016 8.74902 85.4506C8.78202 85.3416 8.81501 85.2416 8.85501 85.1416C8.89501 85.0416 8.93602 84.9416 8.98402 84.8506C9.00502 84.7966 9.03301 84.7436 9.06201 84.6896C9.11001 84.5906 9.16702 84.4916 9.22302 84.3926C9.28902 84.2706 9.36302 84.1576 9.44502 84.0376C9.51802 83.9246 9.60001 83.8116 9.68901 83.7006C9.77801 83.5886 9.87502 83.4776 9.98102 83.3596C10.061 83.2626 10.157 83.1676 10.26 83.0736C10.356 82.9706 10.468 82.8766 10.58 82.7826L10.649 82.7246C10.846 82.5666 11.066 82.4106 11.293 82.2706C11.402 82.2006 11.52 82.1306 11.645 82.0696C11.92 81.9256 12.218 81.7926 12.522 81.6836C13.467 81.3426 14.448 81.2286 15.405 81.3106C15.587 81.3266 15.76 81.3496 15.932 81.3796C16.926 82.3176 17.966 83.1946 19.067 83.9986L19.157 85.6296Z" fill="white"/>
</g>
<path d="M55.1961 88.7617L44.8361 113.712C44.6161 114.235 44.3351 114.709 43.9781 115.142C43.0691 116.29 41.7441 117.095 40.2781 117.436L40.2701 117.437C39.0461 117.722 37.7271 117.682 36.4741 117.246C33.6461 116.268 32.0262 113.603 32.4132 110.927C32.4792 110.458 32.6031 110 32.7901 109.544L37.6141 97.9277L38.4421 95.9347L43.1491 84.5927C44.0681 82.3917 46.2401 80.9467 48.6171 80.7177C49.5731 80.6257 50.5631 80.7287 51.5111 81.0597C53.3991 81.7067 54.7461 83.1147 55.3201 84.7647C55.7601 86.0217 55.7521 87.4247 55.1961 88.7617Z" fill="#111111"/>
<path d="M55.3197 84.7647C55.2537 85.2337 55.1307 85.6917 54.9437 86.1477L44.9847 110.127L44.5847 111.098C44.3637 111.621 44.0827 112.095 43.7267 112.528C43.7267 112.528 43.7277 112.536 43.7197 112.537C42.0347 114.652 38.9767 115.585 36.2227 114.632C34.3347 113.985 32.9877 112.577 32.4137 110.927C31.9737 109.67 31.9817 108.267 32.5377 106.93L36.4887 97.4147L37.3617 95.3137C37.7307 95.5017 38.0927 95.7057 38.4417 95.9347L43.1487 84.5927C44.0677 82.3917 46.2397 80.9467 48.6167 80.7177C49.5727 80.6257 50.5627 80.7287 51.5107 81.0597C53.3987 81.7057 54.7457 83.1147 55.3197 84.7647Z" fill="#2D2D2D"/>
<path d="M45.7843 105.861C45.7843 106.305 45.7603 106.742 45.7213 107.178V107.186C45.5473 108.987 45.0313 110.669 44.2223 112.192C44.2223 112.192 44.2223 112.2 44.2143 112.2C43.2703 113.993 41.9373 115.548 40.3193 116.746H40.3113C38.0583 118.436 35.2583 119.435 32.2193 119.435C29.1813 119.435 26.3803 118.435 24.1193 116.746C22.5013 115.54 21.1603 113.985 20.2083 112.184C19.4073 110.661 18.8913 108.979 18.7163 107.186V107.178C18.6763 106.742 18.6533 106.305 18.6533 105.861C18.6533 101.514 20.7003 97.6499 23.8813 95.1669C24.2063 94.9049 24.5473 94.6669 24.8963 94.4369C27.0063 93.0799 29.5213 92.2949 32.2183 92.2949C34.9233 92.2949 37.4303 93.0799 39.5403 94.4449C39.8893 94.6669 40.2303 94.9049 40.5553 95.1669C43.7373 97.6419 45.7843 101.513 45.7843 105.861Z" fill="#2D2D2D"/>
<path d="M48.2669 83.3629V83.434L47.7439 87.02C47.2359 88.853 46.3719 90.6379 45.2049 92.2639C42.3089 96.3339 37.6129 99.356 32.2179 99.356C23.2379 99.356 16.1689 90.9629 16.1689 83.3629C16.1689 75.7629 23.2379 71.8359 32.2179 71.8359C41.2059 71.8359 48.2669 75.7629 48.2669 83.3629Z" fill="#F9D210"/>
<g opacity="0.15">
<path d="M55.3222 84.7876C55.2622 85.2396 55.1372 85.6826 54.9572 86.1296C54.2452 85.0346 53.1472 84.1446 51.7632 83.6726C50.8142 83.3416 49.8322 83.2376 48.8772 83.3296C47.4482 83.4676 46.0852 84.0456 45.0352 84.9756C45.0512 84.4796 45.0362 83.9956 44.9902 83.5136L44.9912 83.4416C46.0842 82.6266 47.1142 81.7386 48.0982 80.7906C48.2702 80.7576 48.4432 80.7336 48.6252 80.7156C49.5812 80.6236 50.5632 80.7276 51.5112 81.0586C51.8162 81.1646 52.1162 81.2946 52.3922 81.4356C52.5172 81.4956 52.6352 81.5636 52.7462 81.6326C52.9742 81.7696 53.1972 81.9236 53.3952 82.0806L53.4642 82.1376C53.5772 82.2306 53.6892 82.3236 53.7872 82.4256C53.8922 82.5196 53.9882 82.6136 54.0692 82.7096C54.1762 82.8266 54.2742 82.9366 54.3652 83.0476C54.4552 83.1586 54.5382 83.2696 54.6132 83.3826C54.6962 83.5026 54.7712 83.6146 54.8382 83.7356C54.8952 83.8336 54.9532 83.9316 55.0022 84.0306C55.0312 84.0836 55.0602 84.1366 55.0812 84.1906C55.1302 84.2816 55.1712 84.3816 55.2132 84.4806C55.2542 84.5786 55.2882 84.6786 55.3222 84.7876Z" fill="white"/>
</g>
<path d="M64.443 53.93C64.443 54.573 64.427 55.215 64.395 55.85C63.443 73.684 49.377 87.884 32.218 87.884C27.196 87.884 22.436 86.662 18.192 84.489C16.288 83.521 14.495 82.355 12.821 81.022C5.499 75.183 0.604004 66.123 0.0480042 55.858C0.0160041 55.223 0 54.581 0 53.93C0 50.884 2.48301 48.416 5.55301 48.416C8.61501 48.416 11.106 50.883 11.106 53.93C11.106 66.576 20.578 76.857 32.216 76.857C43.862 76.857 53.334 66.576 53.334 53.93C53.334 50.884 55.817 48.416 58.887 48.416C61.952 48.416 64.443 50.883 64.443 53.93Z" fill="#F9D210"/>
<g opacity="0.18">
<path d="M64.443 53.9304C64.443 72.6524 49.989 87.8844 32.218 87.8844C27.196 87.8844 22.436 86.6624 18.192 84.4894C16.288 83.5214 14.495 82.3554 12.821 81.0224C5.03797 74.8184 0.000976562 64.9814 0.000976562 53.9304C0.000976562 53.6924 0.0169655 53.4624 0.0489655 53.2404C0.603965 63.5064 5.49898 72.5654 12.822 78.4044C14.496 79.7374 16.289 80.9034 18.193 81.8714C22.437 84.0454 27.197 85.2664 32.219 85.2664C49.379 85.2664 63.444 71.0654 64.396 53.2324C64.427 53.4624 64.443 53.6924 64.443 53.9304Z" fill="#606060"/>
</g>
<path d="M43.8171 67.7894C43.8171 74.1994 38.6291 79.3954 32.2191 79.3954C25.8171 79.3954 20.6211 74.1994 20.6211 67.7894C20.6211 67.3054 20.6531 66.8214 20.7161 66.3534C21.4141 60.6334 26.3011 56.1914 32.2191 56.1914C38.1451 56.1914 43.0241 60.6344 43.7221 66.3534C43.7851 66.8214 43.8171 67.3054 43.8171 67.7894Z" fill="#3DAA40"/>
<path d="M43.4483 65.2152C43.4483 65.6992 43.4173 66.1832 43.3563 66.6512C42.6803 60.9312 37.9563 56.4882 32.2183 56.4882C26.4883 56.4882 21.7563 60.9312 21.0803 66.6512C21.0183 66.1832 20.9883 65.6992 20.9883 65.2152C20.9883 58.8052 26.0193 53.6172 32.2183 53.6172C38.4253 53.6162 43.4483 58.8052 43.4483 65.2152Z" fill="#7AF47D"/>
<path d="M43.7209 66.3534C43.0229 72.0734 38.1438 76.5164 32.2178 76.5164C26.2998 76.5164 21.4128 72.0734 20.7148 66.3534C21.4128 60.6334 26.2998 56.1914 32.2178 56.1914C38.1438 56.1914 43.0229 60.6334 43.7209 66.3534Z" fill="#54D354"/>
<path d="M48.2669 83.3613L45.0779 105.471C44.3719 109.755 41.0639 112.857 37.2079 112.857H27.2279C23.3719 112.857 20.0639 109.755 19.3579 105.471L16.3989 84.9803L16.1689 83.3623H48.2669V83.3613Z" fill="#F9D210"/>
<g opacity="0.18">
<path d="M48.2747 83.3613L48.2667 83.4173V83.4333L47.7437 87.0193L45.0857 105.472C44.3797 109.756 41.0717 112.858 37.2157 112.858H35.4307C39.2857 112.858 42.5947 109.756 43.3007 105.472L45.2047 92.2633L46.4897 83.3623H48.2747V83.3613Z" fill="#606060"/>
</g>
</svg>
