<?xml version="1.0" encoding="utf-8"?>
<!-- Generator: Adobe Illustrator 26.1.0, SVG Export Plug-In . SVG Version: 6.00 Build 0)  -->
<svg version="1.1" id="Layer_1" xmlns="http://www.w3.org/2000/svg" xmlns:xlink="http://www.w3.org/1999/xlink" x="0px" y="0px"
	 viewBox="0 0 1029.8 426.7" style="enable-background:new 0 0 1029.8 426.7;" xml:space="preserve">
<style type="text/css">
	.st0{fill:#FFFFFF;}
</style>
<g>
	<g>
		<g>
			<path class="st0" d="M932.5,31.6H407.1c17,15.4,27.7,37.7,27.7,62.5v237.7c0,25.2-11.1,47.9-28.7,63.3h526.5
				c36.1,0,65.4-29.3,65.4-65.4V97.1C998,60.9,968.7,31.6,932.5,31.6z M562.4,244.3c5.2,9.2,12.5,16.4,21.8,21.5
				c9.3,5.2,19.9,7.7,31.8,7.7c12.6,0,24-2.7,34.1-8.1v-35.4c0-11.1,9-20,20-20c11.1,0,20,9,20,20v56.8
				c-10.3,7.8-22.2,13.7-35.7,17.8c-13.5,4.1-27.2,6.2-40.8,6.2c-19.7,0-37.3-4.2-53-12.6c-15.7-8.4-28-20-36.9-34.9
				c-9-14.9-13.4-31.7-13.4-50.4c0-18.7,4.5-35.6,13.4-50.4c8.9-14.9,21.3-26.5,37.2-34.9c15.8-8.4,33.7-12.6,53.5-12.6
				c16.6,0,31.7,2.8,45.2,8.4c13.5,5.6,24.9,13.7,34.1,24.3l-28.1,26c-13.5-14.2-29.9-21.4-49-21.4c-12.1,0-22.8,2.5-32.2,7.6
				c-9.4,5-16.7,12.2-21.9,21.3c-5.2,9.2-7.8,19.7-7.8,31.7C554.6,224.6,557.2,235.1,562.4,244.3z M901.5,263.1
				c-9,14.9-21.4,26.6-37.1,35c-15.7,8.5-33.4,12.7-53,12.7c-19.7,0-37.4-4.2-53.2-12.7c-15.8-8.5-28.1-20.1-37.1-35
				c-8.9-14.9-13.4-31.6-13.4-50.2c0-18.6,4.5-35.3,13.4-50.2c8.9-14.9,21.3-26.5,37.1-35c15.8-8.5,33.5-12.7,53.2-12.7
				c19.6,0,37.3,4.2,53,12.7s28,20.1,37.1,35c9,14.9,13.5,31.6,13.5,50.2C915,231.5,910.5,248.2,901.5,263.1z M841.8,160
				c-9-5.2-19.1-7.7-30.3-7.7c-11.2,0-21.3,2.6-30.3,7.7c-9,5.1-16.1,12.3-21.2,21.5c-5.1,9.2-7.7,19.6-7.7,31.4
				c0,11.7,2.6,22.2,7.7,31.4c5.1,9.2,12.2,16.4,21.2,21.5c9,5.2,19.1,7.7,30.3,7.7c11.2,0,21.3-2.6,30.3-7.7
				c9-5.1,16.1-12.3,21.2-21.5c5.2-9.2,7.7-19.6,7.7-31.4c0-11.7-2.6-22.2-7.7-31.4C857.8,172.3,850.8,165.2,841.8,160z"/>
		</g>
		<g>
			<path class="st0" d="M371.8,111.2V95.3c0-22-17.9-39.8-39.8-39.8H95.9c-22,0-39.8,17.9-39.8,39.8v165.3h120.3v0.1h44.5
				c2.7,0,5.3-0.2,8-0.7c2.7-0.4,5.1-1.3,7.3-2.7c2.2-1.3,4-3.1,5.3-5.3c1.3-2.2,2-5.1,2-8.6c0-7.3-1.9-12.1-5.7-14.3
				c-3.8-2.2-8.9-3.3-15.3-3.3h-23.3c-5.8,0-11.4-0.7-16.8-2c-5.4-1.3-10.3-3.5-14.6-6.6c-4.3-3.1-7.8-7.2-10.5-12.3
				c-2.7-5.1-4-11.5-4-19.3c0-7.5,1.5-13.8,4.5-19c3-5.1,6.9-9.2,11.6-12.3c4.8-3.1,10.1-5.3,16-6.5c5.9-1.2,11.7-1.8,17.5-1.8H384
				c6.7,0,12.1,5.4,12.1,12.1v173.3c0,35.4-28.7,64.1-64.1,64.1H95.9c-35.4,0-64.1-28.7-64.1-64.1v-13.2c0-6.7,5.4-12.1,12.1-12.1
				c6.5,0,11.8,5.1,12.1,11.6v13.8c0,22,17.9,39.8,39.8,39.8H332c22,0,39.8-17.9,39.8-39.8V168.7H234.2v-0.1h-33
				c-7.1,0-12.6,1.2-16.6,3.5c-4,2.3-6,6.7-6,13.1c0,6,1.8,10.3,5.3,13c3.5,2.7,8.6,4,15.3,4h23.9c6.2,0,12.1,0.7,17.6,2
				c5.5,1.3,10.4,3.5,14.6,6.6c4.2,3.1,7.5,7.3,10,12.5c2.4,5.2,3.7,11.7,3.7,19.4c0,8-1.3,14.6-3.8,19.8
				c-2.6,5.2-5.9,9.4-10.1,12.5c-4.2,3.1-9,5.3-14.5,6.5c-5.4,1.2-11,1.8-16.8,1.8H43.5c-6.5-0.2-11.7-5.6-11.7-12.1V95.3
				c0-35.4,28.7-64.1,64.1-64.1H332c35.4,0,64.1,28.7,64.1,64.1v15.9c0,6.7-5.4,12.1-12.1,12.1C377.3,123.3,371.8,117.9,371.8,111.2
				L371.8,111.2z"/>
		</g>
	</g>
</g>
</svg>
