<svg width="164" height="65" viewBox="0 0 164 65" fill="none" xmlns="http://www.w3.org/2000/svg">
<path d="M60.5229 14.2309V11.4055C60.5229 7.49701 57.3433 4.31713 53.4345 4.31713H11.4058C7.497 4.31713 4.3174 7.49701 4.3174 11.4055V40.8323H25.729V40.8482H33.6439C34.1173 40.8482 34.5909 40.8092 35.0643 40.7299C35.5377 40.6516 35.9715 40.4932 36.3663 40.2563C36.7601 40.0198 37.0767 39.7046 37.3133 39.3095C37.55 38.916 37.6684 38.4026 37.6684 37.7705C37.6684 36.469 37.333 35.621 36.6622 35.2259C35.9911 34.8319 35.0837 34.6342 33.9395 34.6342H29.797C28.7706 34.6342 27.7743 34.5158 26.8084 34.2789C25.8407 34.0422 24.9736 33.6482 24.2041 33.0952C23.4348 32.5433 22.8134 31.8136 22.3398 30.9056C21.8664 29.9986 21.6297 28.8542 21.6297 27.4728C21.6297 26.1318 21.8958 25.0078 22.4287 24.0995C22.9612 23.1926 23.6514 22.4629 24.5002 21.9099C25.3482 21.3575 26.295 20.973 27.3407 20.7557C28.3856 20.5397 29.4215 20.4301 30.4481 20.4301H62.6804C63.8731 20.4301 64.84 21.397 64.84 22.59V53.4345C64.84 59.7335 59.7338 64.84 53.4345 64.84H11.4058C5.10653 64.84 0 59.7335 0 53.4345V51.0857C0 49.8927 0.96691 48.9261 2.15989 48.9261C3.31918 48.9261 4.26512 49.8391 4.3174 50.9857V53.4345C4.3174 57.343 7.497 60.5226 11.4058 60.5226H53.4345C57.3433 60.5226 60.5229 57.343 60.5229 53.4345V24.4707H36.0203V24.4548H30.1523C28.889 24.4548 27.9032 24.662 27.1929 25.076C26.4826 25.4904 26.1275 26.2698 26.1275 27.4139C26.1275 28.4793 26.443 29.2485 27.0745 29.7219C27.7053 30.1952 28.6133 30.4322 29.797 30.4322H34.0581C35.1622 30.4322 36.2085 30.5505 37.195 30.7872C38.1805 31.0239 39.049 31.4187 39.7988 31.9709C40.5481 32.5239 41.1399 33.2637 41.5745 34.19C42.0083 35.1174 42.2254 36.2719 42.2254 37.6522C42.2254 39.0726 41.998 40.2478 41.545 41.1738C41.091 42.1015 40.489 42.8412 39.7399 43.3934C38.9895 43.9464 38.1317 44.3309 37.1655 44.5471C36.1981 44.7644 35.202 44.873 34.1767 44.873H2.08188C0.924988 44.8321 0 43.8814 0 42.7147V11.4055C0 5.10653 5.10653 0 11.4058 0H53.4345C59.7338 0 64.84 5.10653 64.84 11.4055V14.2309C64.84 15.4228 63.8736 16.3894 62.6817 16.3894C61.4893 16.3894 60.5229 15.4228 60.5229 14.2309Z" fill="white"/>
<path d="M142.27 34.4135H147.066L144.668 26.5542L142.27 34.4135ZM149.508 42.4194L148.168 38.0206H141.146L139.806 42.4194H132.698L127.858 34.3547L125.827 37.2289V42.4194H122.348V21.8915H125.827V31.481L132.525 21.8915H136.414L130.148 31.041L136.42 41.8035L142.961 21.8915H146.418L153.181 42.4194H149.508ZM119.431 33.3871C119.431 36.3929 118.826 38.7097 117.628 40.3372C116.423 41.9576 114.743 42.7713 112.582 42.7713C110.422 42.7713 108.736 41.9576 107.537 40.3372C106.333 38.7097 105.733 36.3929 105.733 33.3871V21.8915H109.233V33.211C109.233 36.8842 110.357 38.7242 112.604 38.7242C113.695 38.7242 114.532 38.2772 115.11 37.39C115.683 36.4957 115.975 35.1026 115.975 33.211V21.8915H119.431V33.3871ZM102.179 37.5513C101.477 39.091 100.499 40.2934 99.2404 41.1436C97.9765 41.9941 96.5288 42.4194 94.8867 42.4194H88.0159V21.8915H94.8867C96.5288 21.8915 97.9765 22.3167 99.2404 23.1672C100.499 24.0177 101.477 25.2126 102.179 26.7595C102.876 28.2992 103.227 30.1027 103.227 32.1554C103.227 34.2081 102.876 36.0044 102.179 37.5513ZM161.418 3.29917C159.879 1.25346 157.772 0 155.444 0H72.4377C72.0595 0 71.8597 0.601093 72.1135 0.989562C73.7341 3.47501 74.7171 6.75217 74.7171 10.3373V54.9999C74.7171 58.4312 73.8152 61.5763 72.3188 64.0249C72.0813 64.4137 72.281 65 72.6537 65H155.001C159.971 65 164 59.5308 164 52.7859V11.6127C164 8.35034 163.012 5.40313 161.418 3.29917ZM144.668 26.5542L142.27 34.4135H147.066L144.668 26.5542ZM144.668 26.5542L142.27 34.4135H147.066L144.668 26.5542Z" fill="white"/>
<rect x="85.0001" y="16" width="79" height="33" fill="white"/>
<path d="M106.576 34.5222V31.0195H116.637V40.566C114.371 42.9355 110.696 44.4121 107.262 44.4121C100.497 44.4121 94.797 38.8147 94.797 32.187C94.797 25.5594 100.497 19.9963 107.262 19.9963C110.696 19.9963 114.371 21.4386 116.637 23.8081L113.581 26.6583C112.104 24.9413 109.563 23.9111 107.262 23.9111C102.867 23.9111 99.1582 27.6885 99.1582 32.187C99.1582 36.7199 102.867 40.4973 107.262 40.4973C109.048 40.4973 110.971 39.8792 112.448 38.8147V34.5222H106.576ZM131.89 44.4121C125.159 44.4121 119.493 38.8147 119.493 32.187C119.493 25.5594 125.159 19.9963 131.89 19.9963C138.586 19.9963 144.252 25.5594 144.252 32.187C144.252 38.8147 138.586 44.4121 131.89 44.4121ZM131.89 40.4973C136.217 40.4973 139.857 36.7199 139.857 32.187C139.857 27.6885 136.217 23.9111 131.89 23.9111C127.529 23.9111 123.854 27.6885 123.854 32.187C123.854 36.7199 127.529 40.4973 131.89 40.4973Z" fill="#51D71C"/>
</svg>
