<svg width="577" height="577" viewBox="0 0 577 577" fill="none" xmlns="http://www.w3.org/2000/svg">
<path opacity="0.35" d="M528.33 280.617L538.77 263.262C553.212 239.254 545.431 207.973 521.423 193.53L263.263 38.2298C239.254 23.7874 207.972 31.5699 193.53 55.5781L84.7957 236.33L216.315 315.448L216.256 315.545L264.874 344.792C267.781 346.541 270.834 348.052 274.036 349.314C277.233 350.582 280.483 351.212 283.784 351.217C287.076 351.217 290.186 350.451 293.099 348.899C296.007 347.357 298.631 344.64 300.966 340.758C305.775 332.764 306.849 326.315 304.189 321.411C301.522 316.51 296.68 311.942 289.652 307.715L264.205 292.407C257.902 288.615 252.219 284.207 247.161 279.182C242.091 274.153 238.221 268.529 235.539 262.288C232.852 256.056 231.731 249.278 232.178 241.95C232.622 234.631 235.396 226.727 240.501 218.241C245.456 210.004 251.244 204.082 257.872 200.472C264.495 196.871 271.43 194.937 278.688 194.678C285.938 194.418 293.174 195.555 300.4 198.083C307.617 200.617 314.384 203.773 320.691 207.566L518.675 326.667C526.003 331.075 528.369 340.587 523.961 347.914L409.988 537.375C386.712 576.067 336.478 588.564 297.786 565.288L39.6259 409.988C0.933988 386.712 -11.5642 336.477 11.7114 297.786L20.3901 283.358C24.7982 276.031 34.3098 273.665 41.6369 278.072C48.7579 282.356 51.1943 291.462 47.2779 298.697L38.2296 313.738C23.7877 337.745 31.5702 369.027 55.5784 383.47L313.738 538.77C337.747 553.213 369.028 545.43 383.469 521.423L490.493 343.514L339.988 252.975L340.047 252.877L304.002 231.194C296.242 226.526 289.421 224.157 283.529 224.075C277.633 223.997 272.573 227.471 268.346 234.499C264.409 241.043 263.506 246.934 265.635 252.174C267.759 257.413 272.462 262.224 279.732 266.597L305.906 282.343C312.688 286.423 318.677 291.015 323.863 296.115C329.042 301.21 332.917 306.843 335.482 313.007C338.042 319.172 338.943 325.902 338.191 333.198C337.428 340.498 334.496 348.391 329.395 356.87C324.146 365.595 318.407 371.972 312.203 375.987C305.987 380.007 299.555 382.327 292.913 382.951C286.262 383.575 279.571 382.767 272.837 380.525C266.092 378.286 259.573 375.271 253.275 371.482L56.1351 252.889C49.1799 248.363 47.0114 239.105 51.3222 231.939L167.012 39.6256C190.287 0.933675 240.524 -11.5641 279.215 11.7115L537.376 167.012C576.067 190.288 588.563 240.523 565.288 279.215L554.848 296.569C550.444 303.891 540.936 306.257 533.614 301.852C526.291 297.446 523.925 287.939 528.33 280.617Z" fill="#CC0031"/>
</svg>
