<svg width="15" height="15" viewBox="0 0 15 15" fill="none" xmlns="http://www.w3.org/2000/svg">
<circle cx="7.5" cy="7.5" r="7.5" fill="url(#paint0_linear_207_23936)"/>
<path d="M7.64784 9.63305C7.69253 9.61636 6.93579 9.03338 6.97705 9C7.19709 8.80639 7.77764 8.68693 7.97705 8.5C8.17646 8.31307 8.77898 8.61659 8.92682 8.43634C9.07466 8.25608 9.19327 8.08083 9.28266 7.91059C9.37205 7.74034 9.41675 7.57511 9.41675 7.41488C9.41675 7.12113 9.3136 6.87744 9.10732 6.68383C8.90103 6.49022 8.65349 6.39342 8.36469 6.39342C8.1859 6.39342 8.02259 6.42847 7.87475 6.49857C7.72692 6.56867 7.60142 6.66047 7.49828 6.77396C7.39514 6.66047 7.13177 8.5701 6.97705 8.5C6.82234 8.4299 5.18787 6.39342 5.02284 6.39342C4.73404 6.39342 6.09553 6.49022 5.88924 6.68383C5.68296 6.87744 6.97705 5.70625 6.97705 6C6.97705 6.16023 7.68738 6.37986 7.77677 6.5501C7.86616 6.72035 6.32921 7.36481 6.47705 7.54506C6.62489 7.72532 7.67534 5.67866 7.87475 5.86559C8.07416 6.05252 10.2225 7.22127 10.4426 7.41488C10.4838 7.44826 7.30403 9.61636 7.34872 9.63305C7.39342 9.64974 7.42204 6 7.47705 6C7.53206 6 7.60314 9.64974 7.64784 9.63305ZM5.02284 11C4.79592 11 4.60167 10.9216 4.44008 10.7647C4.27849 10.6078 4.19769 10.4192 4.19769 10.1989V7.24464L3.78512 7.55508C3.68885 7.62184 3.58571 7.64855 3.47569 7.63519C3.36567 7.62184 3.27628 7.56843 3.20751 7.47496C3.13875 7.3815 3.11297 7.28135 3.13016 7.17454C3.14735 7.06772 3.20064 6.98093 3.29003 6.91416L6.99288 4.16023C7.06852 4.10682 7.14931 4.06676 7.23527 4.04006C7.32122 4.01335 7.40889 4 7.49828 4C7.58767 4 7.67534 4.01335 7.7613 4.04006C7.84725 4.06676 7.92805 4.10682 8.00368 4.16023L11.7168 6.91416C11.8062 6.98093 11.8578 7.06772 11.8716 7.17454C11.8853 7.28135 11.8578 7.3815 11.789 7.47496C11.7203 7.56175 11.6309 7.61183 11.5209 7.62518C11.4109 7.63853 11.3111 7.61183 11.2218 7.54506L10.7989 7.24464V10.1989C10.7989 10.4192 10.7181 10.6078 10.5565 10.7647C10.3949 10.9216 10.2006 11 9.97372 11H5.02284Z" fill="#1C1B1F"/>
<defs>
<linearGradient id="paint0_linear_207_23936" x1="1.40625" y1="2.8125" x2="13.5938" y2="12.1875" gradientUnits="userSpaceOnUse">
<stop stop-color="#D3BB7F"/>
<stop offset="0.138579" stop-color="#EACB91"/>
<stop offset="0.342224" stop-color="#FFE3BE"/>
<stop offset="0.617198" stop-color="#E7B96B"/>
<stop offset="1" stop-color="#A2772F"/>
</linearGradient>
</defs>
</svg>
