<svg width="13" height="17" viewBox="0 0 13 17" fill="none" xmlns="http://www.w3.org/2000/svg">
<path d="M6.49941 16.907C5.82927 16.907 2.64732 12.9723 1.86753 11.7072C0.700484 10.2179 0.0454828 8.39158 0 6.50003C0 4.77611 0.684822 3.12281 1.90381 1.90381C3.12281 0.684822 4.77611 0 6.50003 0C8.22394 0 9.87725 0.684822 11.0962 1.90381C12.3152 3.12281 13.0001 4.77611 13.0001 6.50003C13.0001 8.58437 12.3053 9.71032 11.1522 11.5766L11.0746 11.7035C10.2714 13.0081 7.15601 16.907 6.49941 16.907ZM6.49941 3.25155C5.85663 3.25155 5.22828 3.44218 4.69384 3.79931C4.15941 4.15645 3.74288 4.66406 3.49696 5.25794C3.25103 5.85181 3.18675 6.50529 3.31224 7.1357C3.43773 7.76612 3.74736 8.34516 4.20196 8.79959C4.65656 9.25402 5.23572 9.56342 5.86618 9.68868C6.49664 9.81393 7.15009 9.7494 7.74388 9.50325C8.33766 9.25709 8.84511 8.84038 9.20204 8.3058C9.55898 7.77123 9.74936 7.14281 9.74912 6.50003C9.74814 5.63845 9.40545 4.81245 8.79622 4.20322C8.187 3.59399 7.36099 3.2513 6.49941 3.25032V3.25155Z" fill="#F52D56"/>
</svg>
