<svg width="13" height="19" viewBox="0 0 13 19" fill="none" xmlns="http://www.w3.org/2000/svg">
<path d="M0 11.2734C0 10.7214 0.140625 10.1771 0.421875 9.64062C0.703125 9.09896 1.10677 8.60417 1.63281 8.15625C2.15885 7.70833 2.78646 7.35156 3.51562 7.08594L3.77344 3.5C3.39323 3.28646 3.03906 3.06771 2.71094 2.84375C2.38802 2.61458 2.10417 2.39323 1.85938 2.17969C1.61458 1.96615 1.42448 1.77083 1.28906 1.59375C1.09115 1.33333 0.992188 1.07812 0.992188 0.828125C0.992188 0.588542 1.07552 0.390625 1.24219 0.234375C1.40885 0.078125 1.63021 0 1.90625 0H10.2344C10.5052 0 10.724 0.078125 10.8906 0.234375C11.0625 0.390625 11.1484 0.588542 11.1484 0.828125C11.1484 1.07812 11.0469 1.33333 10.8438 1.59375C10.7083 1.77083 10.5182 1.96615 10.2734 2.17969C10.0286 2.39323 9.74219 2.61198 9.41406 2.83594C9.09115 3.0599 8.73958 3.28125 8.35938 3.5L8.61719 7.08594C9.34635 7.35156 9.97396 7.70833 10.5 8.15625C11.026 8.60417 11.4297 9.09896 11.7109 9.64062C11.9922 10.1771 12.1328 10.7214 12.1328 11.2734C12.1328 11.6068 12.0286 11.875 11.8203 12.0781C11.6172 12.276 11.3385 12.375 10.9844 12.375H6.75781V16.0234C6.75781 16.3203 6.73177 16.6016 6.67969 16.8672C6.6276 17.1328 6.5625 17.3646 6.48438 17.5625C6.40625 17.7656 6.32812 17.9245 6.25 18.0391C6.17708 18.1536 6.11719 18.2109 6.07031 18.2109C6.01823 18.2109 5.95312 18.1536 5.875 18.0391C5.80208 17.9245 5.72656 17.7656 5.64844 17.5625C5.57031 17.3646 5.50521 17.1328 5.45312 16.8672C5.40104 16.6016 5.375 16.3203 5.375 16.0234V12.375H1.14844C0.799479 12.375 0.520833 12.276 0.3125 12.0781C0.104167 11.875 0 11.6068 0 11.2734Z" fill="#34C759"/>
</svg>
