<?xml version="1.0" encoding="utf-8"?>
<!-- Generator: Adobe Illustrator 26.1.0, SVG Export Plug-In . SVG Version: 6.00 Build 0)  -->
<svg version="1.1" id="Layer_1" xmlns="http://www.w3.org/2000/svg" xmlns:xlink="http://www.w3.org/1999/xlink" x="0px" y="0px"
	 viewBox="0 0 1029.8 1029.8" style="enable-background:new 0 0 1029.8 1029.8;" xml:space="preserve">
<style type="text/css">
	.st0{fill:#FFFFFF;}
	.st1{fill:#FFCC00;}
	.st2{fill:#E80032;}
</style>
<path class="st0" d="M774.2,348.8V323c0-35.8-29.3-64.7-65.4-64.7H320.9c-36.1,0-65.4,29-65.4,64.7v268.7h197.7v0.2h73.1
	c4.4,0,8.7-0.3,13.1-1.1c4.4-0.7,8.4-2.2,12.1-4.3c3.6-2.2,6.5-5.1,8.7-8.6c2.2-3.6,3.3-8.3,3.3-14.1c0-11.9-3.1-19.6-9.3-23.3
	c-6.2-3.6-14.6-5.4-25.1-5.4h-38.2c-9.5,0-18.7-1.1-27.6-3.2c-9-2.2-16.9-5.8-24-10.8c-7.1-5.1-12.8-11.7-17.2-20
	c-4.4-8.3-6.5-18.7-6.5-31.4c0-12.3,2.4-22.5,7.4-30.8c4.9-8.3,11.3-15,19.1-20c7.9-5.1,16.6-8.5,26.2-10.5s19.2-3,28.7-3h295.5
	c12.1,0,21.9,9.7,21.9,21.7v279.6c0,57.5-47.1,104.1-105.3,104.1H320.9c-58.2,0-105.3-46.6-105.3-104.1v-21.6
	c0-5.5,2.3-10.3,5.9-13.9c3.6-3.6,8.6-5.8,14.1-5.8c11,0,19.9,8.9,19.9,19.7v21.6c0,35.8,29.3,64.7,65.4,64.7h387.9
	c36.2,0,65.4-29,65.4-64.7V442.3H548.1v-0.2H494c-11.6,0-20.8,1.9-27.3,5.6c-6.5,3.8-9.9,10.9-9.9,21.4c0,9.8,2.9,16.7,8.7,21.1
	c5.9,4.3,14.2,6.5,25.1,6.5H530c10.2,0,19.8,1.1,29,3.2c9.1,2.2,17.1,5.8,24,10.8c6.9,5,12.4,11.8,16.4,20.3c4,8.4,6,19,6,31.6
	c0,13-2.1,23.7-6.3,32.1c-4.2,8.4-9.8,15.2-16.7,20.3s-14.8,8.5-23.8,10.5s-18.2,3-27.6,3H241.4c-14.2,0-25.7-11.4-25.7-25.4V323
	c0-57.5,47.1-104.1,105.3-104.1h387.9c58.2,0,105.3,46.6,105.3,104.1v25.8c0,5.5-2.3,10.3-5.9,13.9c-3.6,3.6-8.6,5.8-14.1,5.8
	C783.2,368.5,774.2,359.7,774.2,348.8z"/>
<g>
	<rect x="-25.2" y="-25.2" class="st1" width="1093" height="1111.3"/>
	<path class="st2" d="M785.1,339.8v-27.1c0-37.5-30.5-68-68-68H313.7c-37.5,0-68,30.5-68,68v282.4h205.5v0.2h76
		c4.5,0,9.1-0.4,13.6-1.1c4.5-0.8,8.7-2.3,12.5-4.5c3.8-2.3,6.8-5.3,9.1-9.1c2.3-3.8,3.4-8.7,3.4-14.8c0-12.5-3.2-20.6-9.7-24.4
		c-6.4-3.8-15.2-5.7-26.1-5.7h-39.8c-9.9,0-19.4-1.1-28.7-3.4c-9.3-2.3-17.6-6-25-11.4c-7.4-5.3-13.3-12.3-17.9-21
		c-4.5-8.7-6.8-19.7-6.8-32.9c0-12.9,2.6-23.7,7.7-32.4c5.1-8.7,11.7-15.7,19.9-21c8.1-5.3,17.2-9,27.3-11.1c10-2.1,20-3.1,29.8-3.1
		h309.3c11.4,0,20.7,9.3,20.7,20.7v296c0,60.4-49,109.5-109.5,109.5H313.7c-60.5,0-109.5-49-109.5-109.5v-22.5
		c0-11.4,9.3-20.7,20.7-20.7c11.1,0,20.2,8.8,20.7,19.8v23.5c0,37.5,30.5,68,68,68h403.3c37.5,0,68-30.5,68-68v-278H550V438h-56.3
		c-12.1,0-21.6,2-28.4,6c-6.8,4-10.2,11.5-10.2,22.4c0,10.2,3,17.6,9.1,22.2c6,4.5,14.8,6.8,26.1,6.8h40.9c10.6,0,20.6,1.1,30.1,3.4
		c9.5,2.3,17.8,6.1,25,11.4c7.2,5.3,12.9,12.4,17,21.3c4.2,8.9,6.2,20,6.2,33.2c0,13.6-2.2,24.9-6.5,33.8
		c-4.4,8.9-10.1,16-17.3,21.3c-7.2,5.3-15.4,9-24.7,11.1c-9.3,2.1-18.8,3.1-28.7,3.1h-308c-11.1-0.4-20-9.5-20-20.7V312.7
		c0-60.4,49-109.5,109.5-109.5h403.3c60.4,0,109.5,49,109.5,109.5v27.1c0,11.4-9.3,20.7-20.7,20.7
		C794.4,360.5,785.1,351.3,785.1,339.8"/>
</g>
</svg>
