<svg preserveAspectRatio="none" width="100%" height="100%" overflow="visible" style="display: block;" viewBox="0 0 21.4418 21.4393" fill="none" xmlns="http://www.w3.org/2000/svg">
<path id="Path 3565" d="M3.14023 18.3016C2.14465 17.3061 1.35485 16.1243 0.816039 14.8236C0.277227 13.5229 0 12.1288 0 10.7209C0 9.31305 0.277227 7.91895 0.816039 6.61826C1.35485 5.31756 2.14465 4.13574 3.14023 3.14028C4.13569 2.1447 5.31752 1.35495 6.61821 0.816137C7.91891 0.277324 9.31304 0 10.7209 0C12.1288 0 13.5228 0.277324 14.8235 0.816137C16.1242 1.35495 17.306 2.1447 18.3015 3.14028C19.2971 4.13574 20.0869 5.31756 20.6257 6.61826C21.1645 7.91895 21.4418 9.31305 21.4418 10.7209C21.4418 12.1288 21.1645 13.5229 20.6257 14.8236C20.0869 16.1243 19.2971 17.3061 18.3015 18.3016C17.3071 19.298 16.1257 20.0881 14.8251 20.6266C13.5244 21.1651 12.1302 21.4413 10.7225 21.4393C9.31401 21.4415 7.91896 21.1653 6.61756 20.6267C5.31616 20.088 4.1341 19.2975 3.13919 18.3005L3.14023 18.3016ZM4.56176 4.56604C2.93077 6.20089 2.01471 8.41591 2.01471 10.7252C2.01471 13.0345 2.93077 15.2495 4.56176 16.8844C6.19652 18.516 8.41179 19.4323 10.7214 19.4323C13.0311 19.4323 15.2464 18.516 16.8811 16.8844C18.5121 15.2495 19.428 13.0345 19.428 10.7252C19.428 8.41591 18.5121 6.20089 16.8811 4.56604C16.0737 3.75507 15.114 3.1117 14.057 2.67293C13.0001 2.23415 11.8669 2.00863 10.7225 2.00932C9.57758 2.00722 8.44357 2.23156 7.3857 2.66942C6.32783 3.10729 5.36699 3.75004 4.55849 4.56068L4.56176 4.56604ZM12.353 13.7852L9.98287 11.415C9.88135 11.3144 9.80068 11.1947 9.74549 11.0628C9.69031 10.9309 9.66164 10.7894 9.66122 10.6464V5.22961C9.66122 4.94131 9.77574 4.66483 9.9796 4.46098C10.1835 4.25712 10.46 4.1426 10.7483 4.1426C11.0366 4.1426 11.3129 4.25712 11.5168 4.46098C11.7207 4.66483 11.8352 4.94131 11.8352 5.22961V10.1898L13.886 12.2416C13.9869 12.3424 14.0669 12.4621 14.1216 12.5939C14.1762 12.7257 14.2043 12.867 14.2043 13.0096C14.2043 13.1523 14.1762 13.2936 14.1216 13.4254C14.0669 13.5571 13.9869 13.6769 13.886 13.7777C13.7855 13.8794 13.6658 13.9602 13.5339 14.0154C13.4019 14.0706 13.2604 14.0991 13.1173 14.0993C12.9744 14.099 12.8329 14.0705 12.7009 14.0153C12.569 13.9601 12.4493 13.8793 12.3487 13.7777L12.353 13.7852Z" fill="var(--fill-0, #CACACA)"/>
</svg>
