<svg preserveAspectRatio="none" width="100%" height="100%" overflow="visible" style="display: block;" viewBox="0 0 28 11" fill="none" xmlns="http://www.w3.org/2000/svg">
<g id="Text">
<path d="M0.778281 11L4.56492 6.26288L4.90916 6.61162C4.75949 6.71819 4.61481 6.80537 4.47512 6.87318C4.33543 6.941 4.18576 6.98943 4.02611 7.01849C3.86646 7.04756 3.69684 7.06209 3.51723 7.06209C2.83873 7.06209 2.23506 6.91193 1.70623 6.61162C1.1774 6.31132 0.758325 5.90445 0.449008 5.39102C0.149669 4.8679 0 4.27697 0 3.61823C0 2.92074 0.164636 2.30075 0.493909 1.75826C0.83316 1.21576 1.29215 0.78952 1.87087 0.479524C2.45957 0.159841 3.12809 0 3.87644 0C4.63476 0 5.30329 0.154998 5.88201 0.464993C6.46073 0.774989 6.91473 1.20123 7.244 1.74373C7.58325 2.27653 7.75288 2.89168 7.75288 3.58917C7.75288 3.93791 7.71297 4.28666 7.63314 4.6354C7.55332 4.98415 7.40864 5.35711 7.1991 5.75429C6.99954 6.14179 6.71018 6.58256 6.33102 7.07662L3.21789 11H0.778281ZM3.87644 5.40555C4.22567 5.40555 4.53499 5.33289 4.80439 5.18758C5.08377 5.03258 5.30329 4.81946 5.46294 4.54822C5.62258 4.26728 5.70241 3.95244 5.70241 3.6037C5.70241 3.23558 5.61759 2.9159 5.44797 2.64465C5.28832 2.3734 5.0738 2.16028 4.80439 2.00528C4.53499 1.85029 4.22567 1.77279 3.87644 1.77279C3.53719 1.77279 3.22787 1.85029 2.94849 2.00528C2.66911 2.16028 2.4446 2.3734 2.27498 2.64465C2.11533 2.9159 2.0355 3.23558 2.0355 3.6037C2.0355 3.95244 2.11533 4.26728 2.27498 4.54822C2.4446 4.81946 2.66911 5.03258 2.94849 5.18758C3.22787 5.33289 3.53719 5.40555 3.87644 5.40555Z" fill="var(--fill-0, #242E49)"/>
<path d="M10.0662 11V8.96565H12.0418V11H10.0662ZM10.0662 5.12946V3.09511H12.0418V5.12946H10.0662Z" fill="var(--fill-0, #242E49)"/>
<path d="M19.3896 11V8.61691H14.2709V6.96037L19.2698 0.174372H21.3951V6.96037H23.0265V8.61691H21.3951V11H19.3896ZM15.7676 7.67239L15.4084 6.96037H19.3896V1.72919L19.9134 1.88904L15.7676 7.67239Z" fill="var(--fill-0, #242E49)"/>
<path d="M25.9645 11V1.85997H23.8093V0.174372H28V11H25.9645Z" fill="var(--fill-0, #242E49)"/>
</g>
</svg>
