<svg preserveAspectRatio="none" width="100%" height="100%" overflow="visible" style="display: block;" viewBox="0 0 66.662 11.3355" fill="none" xmlns="http://www.w3.org/2000/svg">
<g id="Right Side">
<g id="Battery">
<path id="Rectangle" opacity="0.35" d="M45.001 0.502128H61.667C62.8636 0.502128 63.834 1.4725 63.834 2.66912V8.66912C63.8338 9.86559 62.8635 10.8351 61.667 10.8351H45.001C43.8045 10.8351 42.8342 9.86559 42.834 8.66912V2.66912C42.834 1.4725 43.8044 0.502128 45.001 0.502128Z" stroke="var(--stroke-0, #242E49)"/>
<path id="Combined Shape" opacity="0.4" d="M65.334 3.66814V7.66814C66.1387 7.32937 66.662 6.54128 66.662 5.66814C66.662 4.79501 66.1387 4.00692 65.334 3.66814" fill="var(--fill-0, #242E49)"/>
<path id="Rectangle_2" d="M44.334 3.33546C44.334 2.59908 44.9309 2.00213 45.6673 2.00213H61.0007C61.737 2.00213 62.334 2.59908 62.334 3.33546V8.00213C62.334 8.73851 61.737 9.33546 61.0007 9.33546H45.6673C44.9309 9.33546 44.334 8.73851 44.334 8.00213V3.33546Z" fill="var(--fill-0, #51D71C)"/>
</g>
<path id="Wifi" d="M27.4551 8.40154C28.7306 7.32267 30.5985 7.3227 31.874 8.40154C31.9382 8.45958 31.9758 8.5416 31.9775 8.6281C31.9792 8.71444 31.9454 8.79808 31.8838 8.85857L29.8867 10.8742C29.8282 10.9333 29.7482 10.9659 29.665 10.966C29.5819 10.966 29.5019 10.9332 29.4434 10.8742L27.4453 8.85857C27.3836 8.79792 27.3497 8.71364 27.3516 8.62713C27.3535 8.54088 27.3911 8.45942 27.4551 8.40154ZM24.79 5.71209C27.5382 3.15605 31.7939 3.15598 34.542 5.71209C34.604 5.77197 34.6397 5.85445 34.6406 5.9406C34.6415 6.02676 34.6075 6.1099 34.5469 6.17107L33.3916 7.33807C33.2727 7.45689 33.081 7.4596 32.959 7.34392C32.0566 6.52679 30.8824 6.0744 29.665 6.07439C28.4484 6.0749 27.2749 6.52726 26.373 7.34392C26.251 7.4598 26.0584 7.45716 25.9395 7.33807L24.7852 6.17107C24.7244 6.10999 24.6906 6.02677 24.6914 5.9406C24.6923 5.85445 24.7281 5.77195 24.79 5.71209ZM22.124 3.02947C26.3391 -1.0097 32.9891 -1.00995 37.2041 3.02947C37.265 3.08942 37.2992 3.17156 37.2998 3.25701C37.3003 3.34257 37.2663 3.42481 37.2061 3.48553L36.0498 4.65252C35.9307 4.77199 35.738 4.77324 35.6172 4.65545C34.0113 3.12872 31.8799 2.27764 29.6641 2.27752C27.448 2.27751 25.3161 3.12856 23.71 4.65545C23.5892 4.77344 23.3964 4.77222 23.2773 4.65252L22.1211 3.48553C22.0608 3.42476 22.0268 3.34259 22.0273 3.25701C22.028 3.1715 22.063 3.08939 22.124 3.02947Z" fill="var(--fill-0, #242E49)"/>
<path id="Mobile Signal" d="M11.334 2.6701C11.8863 2.6701 12.334 3.11781 12.334 3.6701V10.0031C12.334 10.5554 11.8863 11.0031 11.334 11.0031H10.334C9.7817 11.0031 9.33398 10.5554 9.33398 10.0031V3.6701C9.33398 3.11781 9.7817 2.6701 10.334 2.6701H11.334ZM16 0.336112C16.5523 0.336112 17 0.783828 17 1.33611V10.0031C16.9998 10.5552 16.5522 11.0031 16 11.0031H15C14.4478 11.0031 14.0002 10.5552 14 10.0031V1.33611C14 0.783828 14.4477 0.336112 15 0.336112H16ZM2 7.00213C2.55228 7.00213 3 7.44984 3 8.00213V10.0021C3 10.5544 2.55228 11.0021 2 11.0021H1C0.447715 11.0021 0 10.5544 0 10.0021V8.00213C0 7.44984 0.447715 7.00213 1 7.00213H2ZM6.66602 5.00213C7.2183 5.00213 7.66602 5.44984 7.66602 6.00213V10.0021C7.66602 10.5544 7.2183 11.0021 6.66602 11.0021H5.66602C5.11373 11.0021 4.66602 10.5544 4.66602 10.0021V6.00213C4.66602 5.44984 5.11373 5.00213 5.66602 5.00213H6.66602Z" fill="var(--fill-0, #242E49)"/>
</g>
</svg>
