<svg preserveAspectRatio="none" width="100%" height="100%" overflow="visible" style="display: block;" viewBox="0 0 365 103.215" fill="none" xmlns="http://www.w3.org/2000/svg">
<g id="Rectangle 18" filter="url(#filter0_d_0_125)">
<path d="M339.093 1H25.9073C12.7037 1 2 11.7037 2 24.9073V76.3079C2 89.5116 12.7037 100.215 25.9073 100.215H339.093C352.296 100.215 363 89.5116 363 76.3079V24.9073C363 11.7037 352.296 1 339.093 1Z" fill="var(--fill-0, white)"/>
<path d="M25.9072 1.5H339.093C352.02 1.50003 362.5 11.9798 362.5 24.9072V76.3076C362.5 89.2351 352.02 99.7148 339.093 99.7148H25.9072C12.9798 99.7148 2.5 89.2351 2.5 76.3076V24.9072L2.50781 24.3027C2.82847 11.6547 13.1819 1.50003 25.9072 1.5Z" stroke="var(--stroke-0, #D3DDE7)"/>
</g>
<defs>
<filter id="filter0_d_0_125" x="0" y="0" width="365" height="103.215" filterUnits="userSpaceOnUse" color-interpolation-filters="sRGB">
<feFlood flood-opacity="0" result="BackgroundImageFix"/>
<feColorMatrix in="SourceAlpha" type="matrix" values="0 0 0 0 0 0 0 0 0 0 0 0 0 0 0 0 0 0 127 0" result="hardAlpha"/>
<feOffset dy="1"/>
<feGaussianBlur stdDeviation="1"/>
<feColorMatrix type="matrix" values="0 0 0 0 0 0 0 0 0 0 0 0 0 0 0 0 0 0 0.06 0"/>
<feBlend mode="normal" in2="BackgroundImageFix" result="effect1_dropShadow_0_125"/>
<feBlend mode="normal" in="SourceGraphic" in2="effect1_dropShadow_0_125" result="shape"/>
</filter>
</defs>
</svg>
