<svg width="64" height="5" viewBox="0 0 64 5" fill="none" xmlns="http://www.w3.org/2000/svg">
<path d="M0 1.25C0 1.01767 0 0.901509 0.0192147 0.80491C0.0981214 0.408219 0.408219 0.0981214 0.80491 0.0192147C0.901509 0 1.01767 0 1.25 0H62.75C62.9823 0 63.0985 0 63.1951 0.0192147C63.5918 0.0981214 63.9019 0.408219 63.9808 0.80491C64 0.901509 64 1.01767 64 1.25C64 1.94698 64 2.29547 63.9424 2.58527C63.7056 3.77534 62.7753 4.70564 61.5853 4.94236C61.2955 5 60.947 5 60.25 5H3.75C3.05302 5 2.70453 5 2.41473 4.94236C1.22466 4.70564 0.294364 3.77534 0.0576442 2.58527C0 2.29547 0 1.94698 0 1.25Z" fill="#D7D8D9"/>
</svg>
