<svg width="12" height="12" viewBox="0 0 12 12" fill="none" xmlns="http://www.w3.org/2000/svg">
<g clip-path="url(#clip0_207_29693)">
<path d="M1.74453 11.9919H9.94209C11.1277 11.9919 11.6867 11.656 11.6867 10.9188C11.6867 9.23146 9.48482 6.76589 5.84333 6.76589C2.2103 6.76589 0 9.23146 0 10.9188C0 11.656 0.567396 11.9919 1.74453 11.9919ZM1.36345 10.886C1.27029 10.886 1.21948 10.8614 1.21948 10.7714C1.21948 9.81298 2.84545 7.8717 5.84333 7.8717C8.8412 7.8717 10.4672 9.81298 10.4672 10.7714C10.4672 10.8614 10.4163 10.886 10.3232 10.886H1.36345ZM5.84333 6.01231C7.44389 6.01231 8.75656 4.628 8.75656 2.9652C8.75656 1.30239 7.46083 0 5.84333 0C4.24276 0 2.93014 1.32697 2.93014 2.98158C2.93014 4.63619 4.25123 6.01231 5.84333 6.01231ZM5.84333 4.91469C4.94565 4.91469 4.14961 4.05462 4.14961 2.98158C4.14961 1.90854 4.92025 1.10581 5.84333 1.10581C6.77487 1.10581 7.53705 1.89216 7.53705 2.9652C7.53705 4.03823 6.75794 4.91469 5.84333 4.91469Z" fill="#364B63"/>
</g>
<defs>
<clipPath id="clip0_207_29693">
<rect width="12" height="12" fill="white"/>
</clipPath>
</defs>
</svg>
